<svg width="1584" height="396" viewBox="0 0 1584 396" fill="none" xmlns="http://www.w3.org/2000/svg">
<rect width="1584" height="396" fill="#F5F5F5"/>
<g id="Awesome banner" clip-path="url(#clip0_0_1)">
<rect width="1584" height="396" fill="url(#paint0_linear_0_1)"/>
<ellipse id="Ellipse 2" cx="323" cy="64" rx="285" ry="288" fill="url(#paint1_linear_0_1)" fill-opacity="0.1"/>
<g id="copyright">
<path d="M75.95 334.52L72.30 334.52L72.30 311.16L77.20 311.16L83.70 330.04Q83.60 329.02 83.50 327.62Q83.41 326.23 83.33 324.79Q83.25 323.35 83.25 322.23L83.25 311.16L86.90 311.16L86.90 334.52L82 334.52L75.57 315.64Q75.63 316.57 75.73 317.88Q75.82 319.19 75.89 320.57Q75.95 321.94 75.95 323.10L75.95 334.52M98.80 334.84Q96.46 334.84 94.67 333.96Q92.88 333.08 91.89 331.53Q90.90 329.98 90.90 327.93Q90.90 325.78 92.13 324.18Q93.36 322.58 95.34 322.17L95.34 322.10Q93.65 321.75 92.61 320.38Q91.57 319 91.57 317.11Q91.57 315.26 92.48 313.85Q93.39 312.44 95.02 311.64Q96.66 310.84 98.80 310.84Q100.94 310.84 102.59 311.64Q104.24 312.44 105.15 313.85Q106.06 315.26 106.06 317.11Q106.06 319 105.01 320.38Q103.95 321.75 102.26 322.10L102.26 322.17Q104.24 322.58 105.47 324.18Q106.70 325.78 106.70 327.93Q106.70 329.98 105.71 331.53Q104.72 333.08 102.93 333.96Q101.14 334.84 98.80 334.84M98.80 320.73Q100.30 320.73 101.23 319.82Q102.16 318.90 102.16 317.46Q102.16 315.99 101.23 315.08Q100.30 314.17 98.80 314.17Q97.30 314.17 96.37 315.08Q95.44 315.99 95.44 317.46Q95.44 318.90 96.37 319.82Q97.30 320.73 98.80 320.73M98.80 331.45Q100.56 331.45 101.68 330.42Q102.80 329.40 102.80 327.74Q102.80 326.04 101.68 325Q100.56 323.96 98.80 323.96Q97.04 323.96 95.92 325Q94.80 326.04 94.80 327.74Q94.80 329.40 95.92 330.42Q97.04 331.45 98.80 331.45M114.35 334.52L110.70 334.52L110.70 311.16L115.60 311.16L122.10 330.04Q122 329.02 121.90 327.62Q121.81 326.23 121.73 324.79Q121.65 323.35 121.65 322.23L121.65 311.16L125.30 311.16L125.30 334.52L120.40 334.52L113.97 315.64Q114.03 316.57 114.13 317.88Q114.22 319.19 114.29 320.57Q114.35 321.94 114.35 323.10" fill="white" fill-opacity="0.9"/>
<path d="M161.48 325.24L151.24 325.24L151.24 322.68L161.48 322.68" fill="white" fill-opacity="0.9"/>
<path d="M195.02 334.84Q191.82 334.84 189.96 333.05Q188.11 331.26 188.11 328.12L188.11 317.56Q188.11 314.42 189.96 312.63Q191.82 310.84 195.02 310.84Q198.15 310.84 200.01 312.65Q201.87 314.46 201.87 317.56L198.99 317.56Q198.99 315.58 197.95 314.50Q196.91 313.43 195.02 313.43Q193.13 313.43 192.06 314.50Q190.99 315.58 190.99 317.56L190.99 328.12Q190.99 330.10 192.06 331.18Q193.13 332.25 195.02 332.25Q196.91 332.25 197.95 331.18Q198.99 330.10 198.99 328.12L201.87 328.12Q201.87 331.22 200.01 333.03Q198.15 334.84 195.02 334.84" fill="white" fill-opacity="0.9"/>
<path d="M213.96 334.84Q210.83 334.84 209 333.02Q207.18 331.19 207.18 327.80L207.18 317.88Q207.18 314.49 209 312.66Q210.83 310.84 213.96 310.84Q217.10 310.84 218.92 312.66Q220.75 314.49 220.75 317.85L220.75 327.80Q220.75 331.19 218.92 333.02Q217.10 334.84 213.96 334.84M213.96 332.25Q215.85 332.25 216.86 331.18Q217.87 330.10 217.87 328.12L217.87 317.56Q217.87 315.58 216.86 314.50Q215.85 313.43 213.96 313.43Q212.11 313.43 211.08 314.50Q210.06 315.58 210.06 317.56L210.06 328.12Q210.06 330.10 211.08 331.18Q212.11 332.25 213.96 332.25" fill="white" fill-opacity="0.9"/>
<path d="M228.65 334.52L225.87 334.52L225.87 311.16L230.12 311.16L233.10 321.27L236.20 311.16L240.46 311.16L240.46 334.52L237.67 334.52L237.67 323.48Q237.67 321.91 237.72 319.88Q237.77 317.85 237.87 315.77Q237.96 313.69 238.09 312.02L234.31 324.09L231.82 324.09L228.20 312.31Q228.46 314.68 228.55 317.50Q228.65 320.31 228.65 323.48" fill="white" fill-opacity="0.9"/>
<path d="M247.85 334.52L245.07 334.52L245.07 311.16L249.32 311.16L252.30 321.27L255.40 311.16L259.66 311.16L259.66 334.52L256.87 334.52L256.87 323.48Q256.87 321.91 256.92 319.88Q256.97 317.85 257.07 315.77Q257.16 313.69 257.29 312.02L253.51 324.09L251.02 324.09L247.40 312.31Q247.66 314.68 247.75 317.50Q247.85 320.31 247.85 323.48" fill="white" fill-opacity="0.9"/>
<path d="M271.56 334.84Q268.30 334.84 266.57 333.03Q264.84 331.22 264.84 328.12L264.84 311.16L267.72 311.16L267.72 328.12Q267.72 330.04 268.67 331.16Q269.61 332.28 271.56 332.28Q273.48 332.28 274.44 331.16Q275.40 330.04 275.40 328.12L275.40 311.16L278.28 311.16L278.28 328.12Q278.28 331.26 276.57 333.05Q274.86 334.84 271.56 334.84" fill="white" fill-opacity="0.9"/>
<path d="M286.83 334.52L284.04 334.52L284.04 311.16L287.88 311.16L295.02 331.16Q294.95 330.36 294.87 329.19Q294.79 328.02 294.75 326.73Q294.70 325.43 294.70 324.28L294.70 311.16L297.48 311.16L297.48 334.52L293.64 334.52L286.54 314.52Q286.60 315.29 286.67 316.46Q286.73 317.62 286.78 318.92Q286.83 320.22 286.83 321.40" fill="white" fill-opacity="0.9"/>
<path d="M316.20 334.52L303.72 334.52L303.72 331.90L308.49 331.90L308.49 313.78L303.72 313.78L303.72 311.16L316.20 311.16L316.20 313.78L311.43 313.78L311.43 331.90L316.20 331.90" fill="white" fill-opacity="0.9"/>
<path d="M330.60 334.52L327.72 334.52L327.72 313.78L321.32 313.78L321.32 311.16L337 311.16L337 313.78L330.60 313.78" fill="white" fill-opacity="0.9"/>
<path d="M349.80 334.52L346.92 334.52L346.92 325.78L339.88 311.16L342.95 311.16L347.50 320.76Q347.88 321.56 348.11 322.12Q348.33 322.68 348.39 322.94Q348.46 322.68 348.70 322.12Q348.94 321.56 349.32 320.76L353.87 311.16L356.84 311.16L349.80 325.78" fill="white" fill-opacity="0.9"/>
<path d="M382.83 334.52L380.04 334.52L380.04 311.16L383.88 311.16L391.02 331.16Q390.95 330.36 390.87 329.19Q390.79 328.02 390.75 326.73Q390.70 325.43 390.70 324.28L390.70 311.16L393.48 311.16L393.48 334.52L389.64 334.52L382.54 314.52Q382.60 315.29 382.67 316.46Q382.73 317.62 382.78 318.92Q382.83 320.22 382.83 321.40" fill="white" fill-opacity="0.9"/>
<path d="M405.96 334.84Q402.83 334.84 401 333.02Q399.18 331.19 399.18 327.80L399.18 317.88Q399.18 314.49 401 312.66Q402.83 310.84 405.96 310.84Q409.10 310.84 410.92 312.66Q412.75 314.49 412.75 317.85L412.75 327.80Q412.75 331.19 410.92 333.02Q409.10 334.84 405.96 334.84M405.96 332.25Q407.85 332.25 408.86 331.18Q409.87 330.10 409.87 328.12L409.87 317.56Q409.87 315.58 408.86 314.50Q407.85 313.43 405.96 313.43Q404.11 313.43 403.08 314.50Q402.06 315.58 402.06 317.56L402.06 328.12Q402.06 330.10 403.08 331.18Q404.11 332.25 405.96 332.25" fill="white" fill-opacity="0.9"/>
<path d="M424.55 334.52L418.51 334.52L418.51 311.16L424.55 311.16Q426.83 311.16 428.47 312.02Q430.12 312.89 431.03 314.46Q431.95 316.02 431.95 318.17L431.95 327.48Q431.95 329.62 431.03 331.21Q430.12 332.79 428.47 333.66Q426.83 334.52 424.55 334.52M421.39 313.72L421.39 331.96L424.55 331.96Q426.67 331.96 427.87 330.78Q429.07 329.59 429.07 327.48L429.07 318.17Q429.07 316.09 427.87 314.90Q426.67 313.72 424.55 313.72" fill="white" fill-opacity="0.9"/>
<path d="M451.40 334.52L437.96 334.52L437.96 311.16L451.40 311.16L451.40 313.78L440.81 313.78L440.81 321.02L450.28 321.02L450.28 323.58L440.81 323.58L440.81 331.90L451.40 331.90" fill="white" fill-opacity="0.9"/>
<path d="M463.69 334.84Q460.30 334.84 458.28 333.05Q456.27 331.26 456.27 328.12L459.15 328.12Q459.15 330.07 460.39 331.18Q461.64 332.28 463.69 332.28Q465.67 332.28 466.86 331.13Q468.04 329.98 468.04 328.12Q468.04 326.71 467.29 325.67Q466.54 324.63 465.13 324.25L461.58 323.26Q459.37 322.62 458.11 320.97Q456.84 319.32 456.84 317.08Q456.84 315.22 457.67 313.82Q458.51 312.41 460.01 311.62Q461.51 310.84 463.47 310.84Q465.45 310.84 466.97 311.62Q468.49 312.41 469.35 313.80Q470.22 315.19 470.22 317.02L467.34 317.02Q467.34 315.42 466.25 314.41Q465.16 313.40 463.47 313.40Q461.77 313.40 460.71 314.41Q459.66 315.42 459.66 317.02Q459.66 318.30 460.35 319.21Q461.03 320.12 462.28 320.47L465.93 321.50Q468.27 322.14 469.56 323.91Q470.86 325.69 470.86 328.12Q470.86 331.19 468.91 333.02Q466.95 334.84 463.69 334.84" fill="white" fill-opacity="0.9"/>
</g>
<path d="M73.41 197.64L71.20 197.64L75.76 180.12L78.66 180.12L83.20 197.64L81.02 197.64L79.86 192.98L74.56 192.98L73.41 197.64M76.34 185.74L74.99 191.16L79.41 191.16L78.06 185.76Q77.68 184.22 77.46 183.19Q77.25 182.16 77.20 181.85Q77.15 182.16 76.94 183.19Q76.72 184.22 76.34 185.74" fill="white" fill-opacity="0.7"/>
<path d="M92.68 197.64L90.52 197.64L90.52 182.09L85.72 182.09L85.72 180.12L97.48 180.12L97.48 182.09L92.68 182.09" fill="white" fill-opacity="0.7"/>
<path d="M107.08 197.64L104.92 197.64L104.92 182.09L100.12 182.09L100.12 180.12L111.88 180.12L111.88 182.09L107.08 182.09" fill="white" fill-opacity="0.7"/>
<path d="M125.68 197.64L115.60 197.64L115.60 180.12L125.68 180.12L125.68 182.09L117.74 182.09L117.74 187.51L124.84 187.51L124.84 189.43L117.74 189.43L117.74 195.67L125.68 195.67" fill="white" fill-opacity="0.7"/>
<path d="M131.85 197.64L129.76 197.64L129.76 180.12L132.64 180.12L137.99 195.12Q137.94 194.52 137.88 193.64Q137.82 192.77 137.79 191.80Q137.75 190.82 137.75 189.96L137.75 180.12L139.84 180.12L139.84 197.64L136.96 197.64L131.63 182.64Q131.68 183.22 131.73 184.09Q131.78 184.97 131.81 185.94Q131.85 186.91 131.85 187.80" fill="white" fill-opacity="0.7"/>
<path d="M150.28 197.64L148.12 197.64L148.12 182.09L143.32 182.09L143.32 180.12L155.08 180.12L155.08 182.09L150.28 182.09" fill="white" fill-opacity="0.7"/>
<path d="M168.28 197.64L158.92 197.64L158.92 195.67L162.50 195.67L162.50 182.09L158.92 182.09L158.92 180.12L168.28 180.12L168.28 182.09L164.70 182.09L164.70 195.67L168.28 195.67" fill="white" fill-opacity="0.7"/>
<path d="MNaN 197.88Q175.65 197.88 174.28 196.51Q172.91 195.14 172.91 192.60L172.91 185.16Q172.91 182.62 174.28 181.25Q175.65 179.88 NaN 179.88Q180.35 179.88 181.72 181.25Q183.09 182.62 183.09 185.14L183.09 192.60Q183.09 195.14 181.72 196.51Q180.35 197.88 NaN 197.88MNaN 195.94Q179.42 195.94 180.17 195.13Q180.93 194.33 180.93 192.84L180.93 184.92Q180.93 183.43 180.17 182.63Q179.42 181.82 NaN 181.82Q176.61 181.82 175.84 182.63Q175.07 183.43 175.07 184.92L175.07 192.84Q175.07 194.33 175.84 195.13Q176.61 195.94 NaN 195.94" fill="white" fill-opacity="0.7"/>
<path d="M189.45 197.64L187.36 197.64L187.36 180.12L190.24 180.12L195.59 195.12Q195.54 194.52 195.48 193.64Q195.42 192.77 195.39 191.80Q195.35 190.82 195.35 189.96L195.35 180.12L197.44 180.12L197.44 197.64L194.56 197.64L189.23 182.64Q189.28 183.22 189.33 184.09Q189.38 184.97 189.41 185.94Q189.45 186.91 189.45 187.80" fill="white" fill-opacity="0.7"/>
<path d="M206.80 187.75Q205.82 187.75 205.31 187.27Q204.81 186.79 204.81 185.98Q204.81 185.16 205.31 184.68Q205.82 184.20 206.80 184.20Q207.78 184.20 208.29 184.68Q208.79 185.16 208.79 185.98Q208.79 186.79 208.29 187.27Q207.78 187.75 206.80 187.75M206.80 197.88Q205.82 197.88 205.31 197.40Q204.81 196.92 204.81 196.10Q204.81 195.29 205.31 194.81Q205.82 194.33 206.80 194.33Q207.78 194.33 208.29 194.81Q208.79 195.29 208.79 196.10Q208.79 196.92 208.29 197.40Q207.78 197.88 206.80 197.88" fill="white" fill-opacity="0.7"/>
<path d="M236.68 197.64L234.52 197.64L234.52 182.09L229.72 182.09L229.72 180.12L241.48 180.12L241.48 182.09L236.68 182.09" fill="white" fill-opacity="0.7"/>
<path d="M247.17 197.64L245.01 197.64L245.01 180.12L247.17 180.12L247.17 186.96L247.19 186.96Q247.36 185.64 248.27 184.92Q249.18 184.20 250.70 184.20Q252.69 184.20 253.86 185.42Q255.04 186.65 255.04 188.76L255.04 197.64L252.88 197.64L252.88 189.12Q252.88 187.63 252.12 186.83Q251.37 186.02 250.07 186.02Q248.73 186.02 247.95 186.86Q247.17 187.70 247.17 189.24" fill="white" fill-opacity="0.7"/>
<path d="M270.52 197.64L259.24 197.64L259.24 195.67L263.92 195.67L263.92 186.41L259.72 186.41L259.72 184.44L266.08 184.44L266.08 195.67L270.52 195.67L270.52 197.64M264.76 182.06Q263.97 182.06 263.51 181.66Q263.06 181.25 263.06 180.55Q263.06 179.83 263.51 179.41Q263.97 178.99 264.76 178.99Q265.55 178.99 266.01 179.41Q266.46 179.83 266.46 180.55Q266.46 181.25 266.01 181.66Q265.55 182.06 264.76 182.06" fill="white" fill-opacity="0.7"/>
<path d="M279.33 197.83L278.27 197.83Q276.06 197.83 274.85 196.84Q273.64 195.84 273.64 194.02L275.80 194.02Q275.80 194.93 276.45 195.44Q277.10 195.96 278.27 195.96L279.33 195.96Q280.53 195.96 281.19 195.43Q281.85 194.90 281.85 193.94Q281.85 192.24 280.29 192.02L276.64 191.50Q275.30 191.30 274.55 190.38Q273.81 189.46 273.81 187.94Q273.81 186.22 275 185.23Q276.18 184.25 278.27 184.25L279.33 184.25Q281.25 184.25 282.46 185.20Q283.67 186.14 283.77 187.68L281.58 187.68Q281.54 186.98 280.92 186.53Q280.31 186.07 279.33 186.07L278.27 186.07Q277.17 186.07 276.54 186.58Q275.92 187.08 275.92 187.94Q275.92 189.34 277.19 189.53L280.60 190.01Q283.96 190.49 283.96 193.94Q283.96 195.79 282.75 196.81Q281.54 197.83 279.33 197.83" fill="white" fill-opacity="0.7"/>
<path d="M309.02 197.64L306.18 197.64L301.70 184.44L304.02 184.44L306.90 193.32Q307.17 194.11 307.36 194.84Q307.55 195.58 307.65 195.98Q307.77 195.58 307.94 194.84Q308.10 194.11 308.34 193.32L311.22 184.44L313.50 184.44" fill="white" fill-opacity="0.7"/>
<path d="M322 197.88Q319.67 197.88 318.24 196.48Q316.82 195.07 316.82 192.60L316.82 189.48Q316.82 187.01 318.24 185.60Q319.67 184.20 322 184.20Q323.56 184.20 324.72 184.82Q325.89 185.45 326.54 186.58Q327.18 187.70 327.18 189.24L327.18 191.59L318.93 191.59L318.93 192.84Q318.93 194.30 319.77 195.16Q320.61 196.01 322 196.01Q323.20 196.01 323.98 195.54Q324.76 195.07 324.93 194.28L327.09 194.28Q326.87 195.94 325.48 196.91Q324.09 197.88 322 197.88M318.93 189.24L318.93 189.91L325.07 189.91L325.07 189.24Q325.07 187.68 324.27 186.83Q323.46 185.98 322 185.98Q320.54 185.98 319.73 186.83Q318.93 187.68 318.93 189.24" fill="white" fill-opacity="0.7"/>
<path d="M334.05 197.64L331.89 197.64L331.89 184.44L334.05 184.44L334.05 186.96L334.10 186.96Q334.26 185.69 335.18 184.94Q336.09 184.20 337.62 184.20Q339.69 184.20 340.80 185.44Q341.92 186.67 341.92 188.95L341.92 190.08L339.76 190.08L339.76 188.95Q339.76 186.07 336.95 186.07Q335.54 186.07 334.79 186.89Q334.05 187.70 334.05 189.24" fill="white" fill-opacity="0.7"/>
<path d="M351.33 197.83L350.27 197.83Q348.06 197.83 346.85 196.84Q345.64 195.84 345.64 194.02L347.80 194.02Q347.80 194.93 348.45 195.44Q349.10 195.96 350.27 195.96L351.33 195.96Q352.53 195.96 353.19 195.43Q353.85 194.90 353.85 193.94Q353.85 192.24 352.29 192.02L348.64 191.50Q347.30 191.30 346.55 190.38Q345.81 189.46 345.81 187.94Q345.81 186.22 347 185.23Q348.18 184.25 350.27 184.25L351.33 184.25Q353.25 184.25 354.46 185.20Q355.67 186.14 355.77 187.68L353.58 187.68Q353.54 186.98 352.92 186.53Q352.31 186.07 351.33 186.07L350.27 186.07Q349.17 186.07 348.54 186.58Q347.92 187.08 347.92 187.94Q347.92 189.34 349.19 189.53L352.60 190.01Q355.96 190.49 355.96 193.94Q355.96 195.79 354.75 196.81Q353.54 197.83 351.33 197.83" fill="white" fill-opacity="0.7"/>
<path d="M371.32 197.64L360.04 197.64L360.04 195.67L364.72 195.67L364.72 186.41L360.52 186.41L360.52 184.44L366.88 184.44L366.88 195.67L371.32 195.67L371.32 197.64M365.56 182.06Q364.77 182.06 364.31 181.66Q363.86 181.25 363.86 180.55Q363.86 179.83 364.31 179.41Q364.77 178.99 365.56 178.99Q366.35 178.99 366.81 179.41Q367.26 179.83 367.26 180.55Q367.26 181.25 366.81 181.66Q366.35 182.06 365.56 182.06" fill="white" fill-opacity="0.7"/>
<path d="M379.60 197.83Q377.22 197.83 375.82 196.44Q374.42 195.05 374.42 192.55L374.42 189.53Q374.42 187.01 375.81 185.63Q377.20 184.25 379.60 184.25Q382 184.25 383.39 185.63Q384.78 187.01 384.78 189.53L384.78 192.55Q384.78 195.05 383.38 196.44Q381.98 197.83 379.60 197.83M379.60 195.91Q381.02 195.91 381.82 195.12Q382.62 194.33 382.62 192.79L382.62 189.29Q382.62 187.75 381.82 186.96Q381.02 186.17 379.60 186.17Q378.21 186.17 377.39 186.96Q376.58 187.75 376.58 189.29L376.58 192.79Q376.58 194.33 377.39 195.12Q378.21 195.91 379.60 195.91" fill="white" fill-opacity="0.7"/>
<path d="M391.17 197.64L389.01 197.64L389.01 184.44L391.17 184.44L391.17 186.96L391.19 186.96Q391.36 185.64 392.27 184.92Q393.18 184.20 394.70 184.20Q396.69 184.20 397.86 185.42Q399.04 186.65 399.04 188.76L399.04 197.64L396.88 197.64L396.88 189.14Q396.88 187.63 396.12 186.83Q395.37 186.02 394.07 186.02Q392.73 186.02 391.95 186.86Q391.17 187.70 391.17 189.24" fill="white" fill-opacity="0.7"/>
<path d="M428.92 197.64L417.64 197.64L417.64 195.67L422.32 195.67L422.32 186.41L418.12 186.41L418.12 184.44L424.48 184.44L424.48 195.67L428.92 195.67L428.92 197.64M423.16 182.06Q422.37 182.06 421.91 181.66Q421.46 181.25 421.46 180.55Q421.46 179.83 421.91 179.41Q422.37 178.99 423.16 178.99Q423.95 178.99 424.41 179.41Q424.86 179.83 424.86 180.55Q424.86 181.25 424.41 181.66Q423.95 182.06 423.16 182.06" fill="white" fill-opacity="0.7"/>
<path d="M437.73 197.83L436.67 197.83Q434.46 197.83 433.25 196.84Q432.04 195.84 432.04 194.02L434.20 194.02Q434.20 194.93 434.85 195.44Q435.50 195.96 436.67 195.96L437.73 195.96Q438.93 195.96 439.59 195.43Q440.25 194.90 440.25 193.94Q440.25 192.24 438.69 192.02L435.04 191.50Q433.70 191.30 432.95 190.38Q432.21 189.46 432.21 187.94Q432.21 186.22 433.40 185.23Q434.58 184.25 436.67 184.25L437.73 184.25Q439.65 184.25 440.86 185.20Q442.07 186.14 442.17 187.68L439.98 187.68Q439.94 186.98 439.32 186.53Q438.71 186.07 437.73 186.07L436.67 186.07Q435.57 186.07 434.94 186.58Q434.32 187.08 434.32 187.94Q434.32 189.34 435.59 189.53L439 190.01Q442.36 190.49 442.36 193.94Q442.36 195.79 441.15 196.81Q439.94 197.83 437.73 197.83" fill="white" fill-opacity="0.7"/>
<path d="M448.77 197.64L446.61 197.64L446.61 184.44L448.77 184.44L448.77 186.96L448.79 186.96Q448.96 185.64 449.87 184.92Q450.78 184.20 452.30 184.20Q454.29 184.20 455.46 185.42Q456.64 186.65 456.64 188.76L456.64 197.64L454.48 197.64L454.48 189.14Q454.48 187.63 453.72 186.83Q452.97 186.02 451.67 186.02Q450.33 186.02 449.55 186.86Q448.77 187.70 448.77 189.24" fill="white" fill-opacity="0.7"/>
<path d="M467.06 187.32L464.97 187.32L464.78 180.12L467.22 180.12" fill="white" fill-opacity="0.7"/>
<path d="M485.56 197.64L481.72 197.64Q480.09 197.64 479.10 196.69Q478.12 195.74 478.12 194.16L478.12 186.41L474.33 186.41L474.33 184.44L478.12 184.44L478.12 180.72L480.28 180.72L480.28 184.44L485.68 184.44L485.68 186.41L480.28 186.41L480.28 194.16Q480.28 194.83 480.68 195.25Q481.07 195.67 481.72 195.67L485.56 195.67" fill="white" fill-opacity="0.7"/>
<path d="M509.39 197.88Q506.99 197.88 505.55 196.54Q504.11 195.19 504.11 192.84L504.11 189.24Q504.11 186.89 505.55 185.54Q506.99 184.20 509.39 184.20Q511.67 184.20 513.08 185.42Q514.48 186.65 514.55 188.76L512.39 188.76Q512.32 187.49 511.53 186.80Q510.74 186.12 509.39 186.12Q507.98 186.12 507.12 186.92Q506.27 187.73 506.27 189.22L506.27 192.84Q506.27 194.33 507.12 195.14Q507.98 195.96 509.39 195.96Q510.74 195.96 511.53 195.26Q512.32 194.57 512.39 193.32L514.55 193.32Q514.48 195.43 513.08 196.66Q511.67 197.88 509.39 197.88" fill="white" fill-opacity="0.7"/>
<path d="M523.60 197.83Q521.22 197.83 519.82 196.44Q518.42 195.05 518.42 192.55L518.42 189.53Q518.42 187.01 519.81 185.63Q521.20 184.25 523.60 184.25Q526 184.25 527.39 185.63Q528.78 187.01 528.78 189.53L528.78 192.55Q528.78 195.05 527.38 196.44Q525.98 197.83 523.60 197.83M523.60 195.91Q525.02 195.91 525.82 195.12Q526.62 194.33 526.62 192.79L526.62 189.29Q526.62 187.75 525.82 186.96Q525.02 186.17 523.60 186.17Q522.21 186.17 521.39 186.96Q520.58 187.75 520.58 189.29L520.58 192.79Q520.58 194.33 521.39 195.12Q522.21 195.91 523.60 195.91" fill="white" fill-opacity="0.7"/>
<path d="M534.26 197.64L532.24 197.64L532.24 184.44L534.11 184.44L534.11 186.19L534.16 186.19Q534.28 185.30 534.87 184.75Q535.46 184.20 536.37 184.20Q537.23 184.20 537.83 184.70Q538.43 185.21 538.70 186.07L538.72 186.07Q538.89 185.21 539.48 184.70Q540.06 184.20 540.98 184.20Q542.25 184.20 543 185.15Q543.76 186.10 543.76 187.61L543.76 197.64L541.74 197.64L541.74 187.58Q541.74 186.79 541.36 186.32Q540.98 185.86 540.30 185.86Q539.66 185.86 539.27 186.31Q538.89 186.77 538.89 187.56L538.89 197.64L537.11 197.64L537.11 187.58Q537.11 186.79 536.73 186.32Q536.34 185.86 535.70 185.86Q535.02 185.86 534.64 186.31Q534.26 186.77 534.26 187.56" fill="white" fill-opacity="0.7"/>
<path d="M549.57 201.96L547.41 201.96L547.41 184.44L549.57 184.44L549.57 186.96L549.59 186.96Q549.76 185.66 550.72 184.93Q551.68 184.20 553.17 184.20Q555.16 184.20 556.34 185.51Q557.51 186.82 557.51 189.10L557.51 192.96Q557.51 195.24 556.34 196.56Q555.16 197.88 553.17 197.88Q551.68 197.88 550.72 197.14Q549.76 196.39 549.59 195.12L549.52 195.12L549.57 198.12L549.57 201.96M552.45 196.01Q553.82 196.01 554.58 195.29Q555.35 194.57 555.35 192.96L555.35 189.12Q555.35 187.49 554.58 186.78Q553.82 186.07 552.45 186.07Q551.13 186.07 550.35 186.91Q549.57 187.75 549.57 189.24L549.57 192.84Q549.57 194.33 550.35 195.17Q551.13 196.01 552.45 196.01" fill="white" fill-opacity="0.7"/>
<path d="M572.80 197.64L568.72 197.64Q566.97 197.64 565.92 196.62Q564.88 195.60 564.88 193.92L564.88 182.09L560.32 182.09L560.32 180.12L567.04 180.12L567.04 193.92Q567.04 194.74 567.50 195.20Q567.95 195.67 568.72 195.67L572.80 195.67" fill="white" fill-opacity="0.7"/>
<path d="M587.32 197.64L576.04 197.64L576.04 195.67L580.72 195.67L580.72 186.41L576.52 186.41L576.52 184.44L582.88 184.44L582.88 195.67L587.32 195.67L587.32 197.64M581.56 182.06Q580.77 182.06 580.31 181.66Q579.86 181.25 579.86 180.55Q579.86 179.83 580.31 179.41Q580.77 178.99 581.56 178.99Q582.35 178.99 582.81 179.41Q583.26 179.83 583.26 180.55Q583.26 181.25 582.81 181.66Q582.35 182.06 581.56 182.06" fill="white" fill-opacity="0.7"/>
<path d="M594.45 197.88Q592.41 197.88 591.21 196.74Q590.01 195.60 590.01 193.75Q590.01 192.53 590.56 191.62Q591.11 190.70 592.10 190.19Q593.08 189.67 594.35 189.67L598.43 189.67L598.43 188.64Q598.43 186.07 595.62 186.07Q594.38 186.07 593.61 186.53Q592.84 186.98 592.79 187.80L590.63 187.80Q590.75 186.24 592.08 185.22Q593.42 184.20 595.62 184.20Q598.02 184.20 599.31 185.35Q600.59 186.50 600.59 188.57L600.59 197.64L598.46 197.64L598.46 195.24L598.41 195.24Q598.22 196.46 597.18 197.17Q596.15 197.88 594.45 197.88M594.98 196.06Q596.56 196.06 597.50 195.29Q598.43 194.52 598.43 193.20L598.43 191.35L594.59 191.35Q593.54 191.35 592.88 191.99Q592.22 192.62 592.22 193.68Q592.22 194.78 592.95 195.42Q593.68 196.06 594.98 196.06" fill="white" fill-opacity="0.7"/>
<path d="M607.17 197.64L605.01 197.64L605.01 184.44L607.17 184.44L607.17 186.96L607.19 186.96Q607.36 185.64 608.27 184.92Q609.18 184.20 610.70 184.20Q612.69 184.20 613.86 185.42Q615.04 186.65 615.04 188.76L615.04 197.64L612.88 197.64L612.88 189.14Q612.88 187.63 612.12 186.83Q611.37 186.02 610.07 186.02Q608.73 186.02 607.95 186.86Q607.17 187.70 607.17 189.24" fill="white" fill-opacity="0.7"/>
<path d="M629.56 197.64L625.72 197.64Q624.09 197.64 623.10 196.69Q622.12 195.74 622.12 194.16L622.12 186.41L618.33 186.41L618.33 184.44L622.12 184.44L622.12 180.72L624.28 180.72L624.28 184.44L629.68 184.44L629.68 186.41L624.28 186.41L624.28 194.16Q624.28 194.83 624.68 195.25Q625.07 195.67 625.72 195.67L629.56 195.67" fill="white" fill-opacity="0.7"/>
<path d="M651.28 197.64L648.90 197.64L646.74 184.44L648.62 184.44L649.96 193.75Q650.03 194.28 650.10 194.92Q650.18 195.55 650.20 195.96Q650.25 195.55 650.31 194.92Q650.37 194.28 650.46 193.75L652.12 184.44L654.28 184.44L655.94 193.75Q656.03 194.28 656.12 194.92Q656.20 195.55 656.22 195.96Q656.27 195.55 656.34 194.92Q656.42 194.28 656.49 193.75L657.88 184.44L659.66 184.44L657.40 197.64L655.02 197.64L653.51 188.52Q653.42 187.85 653.33 187.09Q653.25 186.34 653.20 185.93Q653.18 186.34 653.08 187.09Q652.98 187.85 652.86 188.52" fill="white" fill-opacity="0.7"/>
<path d="M673.72 197.64L662.44 197.64L662.44 195.67L667.12 195.67L667.12 186.41L662.92 186.41L662.92 184.44L669.28 184.44L669.28 195.67L673.72 195.67L673.72 197.64M667.96 182.06Q667.17 182.06 666.71 181.66Q666.26 181.25 666.26 180.55Q666.26 179.83 666.71 179.41Q667.17 178.99 667.96 178.99Q668.75 178.99 669.21 179.41Q669.66 179.83 669.66 180.55Q669.66 181.25 669.21 181.66Q668.75 182.06 667.96 182.06" fill="white" fill-opacity="0.7"/>
<path d="M687.16 197.64L683.32 197.64Q681.69 197.64 680.70 196.69Q679.72 195.74 679.72 194.16L679.72 186.41L675.93 186.41L675.93 184.44L679.72 184.44L679.72 180.72L681.88 180.72L681.88 184.44L687.28 184.44L687.28 186.41L681.88 186.41L681.88 194.16Q681.88 194.83 682.28 195.25Q682.67 195.67 683.32 195.67L687.16 195.67" fill="white" fill-opacity="0.7"/>
<path d="M693.57 197.64L691.41 197.64L691.41 180.12L693.57 180.12L693.57 186.96L693.59 186.96Q693.76 185.64 694.67 184.92Q695.58 184.20 697.10 184.20Q699.09 184.20 700.26 185.42Q701.44 186.65 701.44 188.76L701.44 197.64L699.28 197.64L699.28 189.12Q699.28 187.63 698.52 186.83Q697.77 186.02 696.47 186.02Q695.13 186.02 694.35 186.86Q693.57 187.70 693.57 189.24" fill="white" fill-opacity="0.7"/>
<path d="M724.43 197.88Q722.46 197.88 721.28 196.56Q720.09 195.24 720.09 192.98L720.09 189.12Q720.09 186.84 721.26 185.52Q722.44 184.20 724.43 184.20Q725.92 184.20 726.89 184.94Q727.86 185.69 728.06 186.96L728.08 186.96L728.03 183.96L728.03 180.12L730.19 180.12L730.19 197.64L728.03 197.64L728.03 195.12L728.01 195.12Q727.84 196.42 726.88 197.15Q725.92 197.88 724.43 197.88M725.15 196.01Q726.50 196.01 727.26 195.17Q728.03 194.33 728.03 192.84L728.03 189.24Q728.03 187.75 727.26 186.91Q726.50 186.07 725.15 186.07Q723.78 186.07 723.02 186.78Q722.25 187.49 722.25 189.12L722.25 192.96Q722.25 194.57 723.02 195.29Q723.78 196.01 725.15 196.01" fill="white" fill-opacity="0.7"/>
<path d="M738.45 197.88Q736.41 197.88 735.21 196.74Q734.01 195.60 734.01 193.75Q734.01 192.53 734.56 191.62Q735.11 190.70 736.10 190.19Q737.08 189.67 738.35 189.67L742.43 189.67L742.43 188.64Q742.43 186.07 739.62 186.07Q738.38 186.07 737.61 186.53Q736.84 186.98 736.79 187.80L734.63 187.80Q734.75 186.24 736.08 185.22Q737.42 184.20 739.62 184.20Q742.02 184.20 743.31 185.35Q744.59 186.50 744.59 188.57L744.59 197.64L742.46 197.64L742.46 195.24L742.41 195.24Q742.22 196.46 741.18 197.17Q740.15 197.88 738.45 197.88M738.98 196.06Q740.56 196.06 741.50 195.29Q742.43 194.52 742.43 193.20L742.43 191.35L738.59 191.35Q737.54 191.35 736.88 191.99Q736.22 192.62 736.22 193.68Q736.22 194.78 736.95 195.42Q737.68 196.06 738.98 196.06" fill="white" fill-opacity="0.7"/>
<path d="M759.16 197.64L755.32 197.64Q753.69 197.64 752.70 196.69Q751.72 195.74 751.72 194.16L751.72 186.41L747.93 186.41L747.93 184.44L751.72 184.44L751.72 180.72L753.88 180.72L753.88 184.44L759.28 184.44L759.28 186.41L753.88 186.41L753.88 194.16Q753.88 194.83 754.28 195.25Q754.67 195.67 755.32 195.67L759.16 195.67" fill="white" fill-opacity="0.7"/>
<path d="M767.25 197.88Q765.21 197.88 764.01 196.74Q762.81 195.60 762.81 193.75Q762.81 192.53 763.36 191.62Q763.91 190.70 764.90 190.19Q765.88 189.67 767.15 189.67L771.23 189.67L771.23 188.64Q771.23 186.07 768.42 186.07Q767.18 186.07 766.41 186.53Q765.64 186.98 765.59 187.80L763.43 187.80Q763.55 186.24 764.88 185.22Q766.22 184.20 768.42 184.20Q770.82 184.20 772.11 185.35Q773.39 186.50 773.39 188.57L773.39 197.64L771.26 197.64L771.26 195.24L771.21 195.24Q771.02 196.46 769.98 197.17Q768.95 197.88 767.25 197.88M767.78 196.06Q769.36 196.06 770.30 195.29Q771.23 194.52 771.23 193.20L771.23 191.35L767.39 191.35Q766.34 191.35 765.68 191.99Q765.02 192.62 765.02 193.68Q765.02 194.78 765.75 195.42Q766.48 196.06 767.78 196.06" fill="white" fill-opacity="0.7"/>
<path d="M797.20 197.88Q794.87 197.88 793.44 196.48Q792.02 195.07 792.02 192.60L792.02 189.48Q792.02 187.01 793.44 185.60Q794.87 184.20 797.20 184.20Q798.76 184.20 799.92 184.82Q801.09 185.45 801.74 186.58Q802.38 187.70 802.38 189.24L802.38 191.59L794.13 191.59L794.13 192.84Q794.13 194.30 794.97 195.16Q795.81 196.01 797.20 196.01Q798.40 196.01 799.18 195.54Q799.96 195.07 800.13 194.28L802.29 194.28Q802.07 195.94 800.68 196.91Q799.29 197.88 797.20 197.88M794.13 189.24L794.13 189.91L800.27 189.91L800.27 189.24Q800.27 187.68 799.47 186.83Q798.66 185.98 797.20 185.98Q795.74 185.98 794.93 186.83Q794.13 187.68 794.13 189.24" fill="white" fill-opacity="0.7"/>
<path d="M808.77 197.64L806.61 197.64L806.61 184.44L808.77 184.44L808.77 186.96L808.79 186.96Q808.96 185.64 809.87 184.92Q810.78 184.20 812.30 184.20Q814.29 184.20 815.46 185.42Q816.64 186.65 816.64 188.76L816.64 197.64L814.48 197.64L814.48 189.14Q814.48 187.63 813.72 186.83Q812.97 186.02 811.67 186.02Q810.33 186.02 809.55 186.86Q808.77 187.70 808.77 189.24" fill="white" fill-opacity="0.7"/>
<path d="M831.16 197.64L827.32 197.64Q825.69 197.64 824.70 196.69Q823.72 195.74 823.72 194.16L823.72 186.41L819.93 186.41L819.93 184.44L823.72 184.44L823.72 180.72L825.88 180.72L825.88 184.44L831.28 184.44L831.28 186.41L825.88 186.41L825.88 194.16Q825.88 194.83 826.28 195.25Q826.67 195.67 827.32 195.67L831.16 195.67" fill="white" fill-opacity="0.7"/>
<path d="M846.52 197.64L835.24 197.64L835.24 195.67L839.92 195.67L839.92 186.41L835.72 186.41L835.72 184.44L842.08 184.44L842.08 195.67L846.52 195.67L846.52 197.64M840.76 182.06Q839.97 182.06 839.51 181.66Q839.06 181.25 839.06 180.55Q839.06 179.83 839.51 179.41Q839.97 178.99 840.76 178.99Q841.55 178.99 842.01 179.41Q842.46 179.83 842.46 180.55Q842.46 181.25 842.01 181.66Q841.55 182.06 840.76 182.06" fill="white" fill-opacity="0.7"/>
<path d="M859.96 197.64L856.12 197.64Q854.49 197.64 853.50 196.69Q852.52 195.74 852.52 194.16L852.52 186.41L848.73 186.41L848.73 184.44L852.52 184.44L852.52 180.72L854.68 180.72L854.68 184.44L860.08 184.44L860.08 186.41L854.68 186.41L854.68 194.16Q854.68 194.83 855.08 195.25Q855.47 195.67 856.12 195.67L859.96 195.67" fill="white" fill-opacity="0.7"/>
<path d="M875.32 197.64L864.04 197.64L864.04 195.67L868.72 195.67L868.72 186.41L864.52 186.41L864.52 184.44L870.88 184.44L870.88 195.67L875.32 195.67L875.32 197.64M869.56 182.06Q868.77 182.06 868.31 181.66Q867.86 181.25 867.86 180.55Q867.86 179.83 868.31 179.41Q868.77 178.99 869.56 178.99Q870.35 178.99 870.81 179.41Q871.26 179.83 871.26 180.55Q871.26 181.25 870.81 181.66Q870.35 182.06 869.56 182.06" fill="white" fill-opacity="0.7"/>
<path d="M883.60 197.88Q881.27 197.88 879.84 196.48Q878.42 195.07 878.42 192.60L878.42 189.48Q878.42 187.01 879.84 185.60Q881.27 184.20 883.60 184.20Q885.16 184.20 886.32 184.82Q887.49 185.45 888.14 186.58Q888.78 187.70 888.78 189.24L888.78 191.59L880.53 191.59L880.53 192.84Q880.53 194.30 881.37 195.16Q882.21 196.01 883.60 196.01Q884.80 196.01 885.58 195.54Q886.36 195.07 886.53 194.28L888.69 194.28Q888.47 195.94 887.08 196.91Q885.69 197.88 883.60 197.88M880.53 189.24L880.53 189.91L886.67 189.91L886.67 189.24Q886.67 187.68 885.87 186.83Q885.06 185.98 883.60 185.98Q882.14 185.98 881.33 186.83Q880.53 187.68 880.53 189.24" fill="white" fill-opacity="0.7"/>
<path d="M898.53 197.83L897.47 197.83Q895.26 197.83 894.05 196.84Q892.84 195.84 892.84 194.02L895 194.02Q895 194.93 895.65 195.44Q896.30 195.96 897.47 195.96L898.53 195.96Q899.73 195.96 900.39 195.43Q901.05 194.90 901.05 193.94Q901.05 192.24 899.49 192.02L895.84 191.50Q894.50 191.30 893.75 190.38Q893.01 189.46 893.01 187.94Q893.01 186.22 894.20 185.23Q895.38 184.25 897.47 184.25L898.53 184.25Q900.45 184.25 901.66 185.20Q902.87 186.14 902.97 187.68L900.78 187.68Q900.74 186.98 900.12 186.53Q899.51 186.07 898.53 186.07L897.47 186.07Q896.37 186.07 895.74 186.58Q895.12 187.08 895.12 187.94Q895.12 189.34 896.39 189.53L899.80 190.01Q903.16 190.49 903.16 193.94Q903.16 195.79 901.95 196.81Q900.74 197.83 898.53 197.83" fill="white" fill-opacity="0.7"/>
<path d="M926.80 197.83Q924.42 197.83 923.02 196.44Q921.62 195.05 921.62 192.55L921.62 189.53Q921.62 187.01 923.01 185.63Q924.40 184.25 926.80 184.25Q929.20 184.25 930.59 185.63Q931.98 187.01 931.98 189.53L931.98 192.55Q931.98 195.05 930.58 196.44Q929.18 197.83 926.80 197.83M926.80 195.91Q928.22 195.91 929.02 195.12Q929.82 194.33 929.82 192.79L929.82 189.29Q929.82 187.75 929.02 186.96Q928.22 186.17 926.80 186.17Q925.41 186.17 924.59 186.96Q923.78 187.75 923.78 189.29L923.78 192.79Q923.78 194.33 924.59 195.12Q925.41 195.91 926.80 195.91" fill="white" fill-opacity="0.7"/>
<path d="M941.32 197.64L939.16 197.64L939.16 188.21L935.32 188.21L935.32 186.24L939.16 186.24L939.16 183.48Q939.16 181.92 940.14 181.02Q941.13 180.12 942.86 180.12L946.72 180.12L946.72 182.09L942.86 182.09Q941.32 182.09 941.32 183.48L941.32 186.24L946.72 186.24L946.72 188.21L941.32 188.21" fill="white" fill-opacity="0.7"/>
<path d="M970 197.83Q967.62 197.83 966.22 196.44Q964.82 195.05 964.82 192.55L964.82 189.53Q964.82 187.01 966.21 185.63Q967.60 184.25 970 184.25Q972.40 184.25 973.79 185.63Q975.18 187.01 975.18 189.53L975.18 192.55Q975.18 195.05 973.78 196.44Q972.38 197.83 970 197.83M970 195.91Q971.42 195.91 972.22 195.12Q973.02 194.33 973.02 192.79L973.02 189.29Q973.02 187.75 972.22 186.96Q971.42 186.17 970 186.17Q968.61 186.17 967.79 186.96Q966.98 187.75 966.98 189.29L966.98 192.79Q966.98 194.33 967.79 195.12Q968.61 195.91 970 195.91" fill="white" fill-opacity="0.7"/>
<path d="M990.40 197.64L986.32 197.64Q984.57 197.64 983.52 196.62Q982.48 195.60 982.48 193.92L982.48 182.09L977.92 182.09L977.92 180.12L984.64 180.12L984.64 193.92Q984.64 194.74 985.10 195.20Q985.55 195.67 986.32 195.67L990.40 195.67" fill="white" fill-opacity="0.7"/>
<path d="M998.03 197.88Q996.06 197.88 994.88 196.56Q993.69 195.24 993.69 192.98L993.69 189.12Q993.69 186.84 994.86 185.52Q996.04 184.20 998.03 184.20Q999.52 184.20 1000.49 184.94Q1001.46 185.69 1001.66 186.96L1001.68 186.96L1001.63 183.96L1001.63 180.12L1003.79 180.12L1003.79 197.64L1001.63 197.64L1001.63 195.12L1001.61 195.12Q1001.44 196.42 1000.48 197.15Q999.52 197.88 998.03 197.88M998.75 196.01Q1000.10 196.01 1000.86 195.17Q1001.63 194.33 1001.63 192.84L1001.63 189.24Q1001.63 187.75 1000.86 186.91Q1000.10 186.07 998.75 186.07Q997.38 186.07 996.62 186.78Q995.85 187.49 995.85 189.12L995.85 192.96Q995.85 194.57 996.62 195.29Q997.38 196.01 998.75 196.01" fill="white" fill-opacity="0.7"/>
<path d="M1029.02 197.64L1026.18 197.64L1021.70 184.44L1024.02 184.44L1026.90 193.32Q1027.17 194.11 1027.36 194.84Q1027.55 195.58 1027.65 195.98Q1027.77 195.58 1027.94 194.84Q1028.10 194.11 1028.34 193.32L1031.22 184.44L1033.50 184.44" fill="white" fill-opacity="0.7"/>
<path d="M1042 197.88Q1039.67 197.88 1038.24 196.48Q1036.82 195.07 1036.82 192.60L1036.82 189.48Q1036.82 187.01 1038.24 185.60Q1039.67 184.20 1042 184.20Q1043.56 184.20 1044.72 184.82Q1045.89 185.45 1046.54 186.58Q1047.18 187.70 1047.18 189.24L1047.18 191.59L1038.93 191.59L1038.93 192.84Q1038.93 194.30 1039.77 195.16Q1040.61 196.01 1042 196.01Q1043.20 196.01 1043.98 195.54Q1044.76 195.07 1044.93 194.28L1047.09 194.28Q1046.87 195.94 1045.48 196.91Q1044.09 197.88 1042 197.88M1038.93 189.24L1038.93 189.91L1045.07 189.91L1045.07 189.24Q1045.07 187.68 1044.27 186.83Q1043.46 185.98 1042 185.98Q1040.54 185.98 1039.73 186.83Q1038.93 187.68 1038.93 189.24" fill="white" fill-opacity="0.7"/>
<path d="M1054.05 197.64L1051.89 197.64L1051.89 184.44L1054.05 184.44L1054.05 186.96L1054.10 186.96Q1054.26 185.69 1055.18 184.94Q1056.09 184.20 1057.62 184.20Q1059.69 184.20 1060.80 185.44Q1061.92 186.67 1061.92 188.95L1061.92 190.08L1059.76 190.08L1059.76 188.95Q1059.76 186.07 1056.95 186.07Q1055.54 186.07 1054.79 186.89Q1054.05 187.70 1054.05 189.24" fill="white" fill-opacity="0.7"/>
<path d="M1071.33 197.83L1070.27 197.83Q1068.06 197.83 1066.85 196.84Q1065.64 195.84 1065.64 194.02L1067.80 194.02Q1067.80 194.93 1068.45 195.44Q1069.10 195.96 1070.27 195.96L1071.33 195.96Q1072.53 195.96 1073.19 195.43Q1073.85 194.90 1073.85 193.94Q1073.85 192.24 1072.29 192.02L1068.64 191.50Q1067.30 191.30 1066.55 190.38Q1065.81 189.46 1065.81 187.94Q1065.81 186.22 1067 185.23Q1068.18 184.25 1070.27 184.25L1071.33 184.25Q1073.25 184.25 1074.46 185.20Q1075.67 186.14 1075.77 187.68L1073.58 187.68Q1073.54 186.98 1072.92 186.53Q1072.31 186.07 1071.33 186.07L1070.27 186.07Q1069.17 186.07 1068.54 186.58Q1067.92 187.08 1067.92 187.94Q1067.92 189.34 1069.19 189.53L1072.60 190.01Q1075.96 190.49 1075.96 193.94Q1075.96 195.79 1074.75 196.81Q1073.54 197.83 1071.33 197.83" fill="white" fill-opacity="0.7"/>
<path d="M1091.32 197.64L1080.04 197.64L1080.04 195.67L1084.72 195.67L1084.72 186.41L1080.52 186.41L1080.52 184.44L1086.88 184.44L1086.88 195.67L1091.32 195.67L1091.32 197.64M1085.56 182.06Q1084.77 182.06 1084.31 181.66Q1083.86 181.25 1083.86 180.55Q1083.86 179.83 1084.31 179.41Q1084.77 178.99 1085.56 178.99Q1086.35 178.99 1086.81 179.41Q1087.26 179.83 1087.26 180.55Q1087.26 181.25 1086.81 181.66Q1086.35 182.06 1085.56 182.06" fill="white" fill-opacity="0.7"/>
<path d="M1099.60 197.83Q1097.22 197.83 1095.82 196.44Q1094.42 195.05 1094.42 192.55L1094.42 189.53Q1094.42 187.01 1095.81 185.63Q1097.20 184.25 1099.60 184.25Q1102 184.25 1103.39 185.63Q1104.78 187.01 1104.78 189.53L1104.78 192.55Q1104.78 195.05 1103.38 196.44Q1101.98 197.83 1099.60 197.83M1099.60 195.91Q1101.02 195.91 1101.82 195.12Q1102.62 194.33 1102.62 192.79L1102.62 189.29Q1102.62 187.75 1101.82 186.96Q1101.02 186.17 1099.60 186.17Q1098.21 186.17 1097.39 186.96Q1096.58 187.75 1096.58 189.29L1096.58 192.79Q1096.58 194.33 1097.39 195.12Q1098.21 195.91 1099.60 195.91" fill="white" fill-opacity="0.7"/>
<path d="M1111.17 197.64L1109.01 197.64L1109.01 184.44L1111.17 184.44L1111.17 186.96L1111.19 186.96Q1111.36 185.64 1112.27 184.92Q1113.18 184.20 1114.70 184.20Q1116.69 184.20 1117.86 185.42Q1119.04 186.65 1119.04 188.76L1119.04 197.64L1116.88 197.64L1116.88 189.14Q1116.88 187.63 1116.12 186.83Q1115.37 186.02 1114.07 186.02Q1112.73 186.02 1111.95 186.86Q1111.17 187.70 1111.17 189.24" fill="white" fill-opacity="0.7"/>
<path d="M81.64 230.43L81.64 232.52Q78.21 231.75 76.32 229.30Q74.44 226.86 74.44 223.16L74.44 218.84Q74.44 215.14 76.32 212.70Q78.21 210.25 81.64 209.48L81.64 211.57Q80.10 211.93 78.96 212.94Q77.82 213.94 77.21 215.44Q76.60 216.94 76.60 218.84L76.60 223.16Q76.60 225.03 77.21 226.54Q77.82 228.06 78.96 229.06Q80.10 230.07 81.64 230.43" fill="white" fill-opacity="0.7"/>
<path d="M91.60 229.88Q89.27 229.88 87.84 228.48Q86.42 227.07 86.42 224.60L86.42 221.48Q86.42 219.01 87.84 217.60Q89.27 216.20 91.60 216.20Q93.16 216.20 94.32 216.82Q95.49 217.45 96.14 218.58Q96.78 219.70 96.78 221.24L96.78 223.59L88.53 223.59L88.53 224.84Q88.53 226.30 89.37 227.16Q90.21 228.01 91.60 228.01Q92.80 228.01 93.58 227.54Q94.36 227.07 94.53 226.28L96.69 226.28Q96.47 227.94 95.08 228.91Q93.69 229.88 91.60 229.88M88.53 221.24L88.53 221.91L94.67 221.91L94.67 221.24Q94.67 219.68 93.87 218.83Q93.06 217.98 91.60 217.98Q90.14 217.98 89.33 218.83Q88.53 219.68 88.53 221.24" fill="white" fill-opacity="0.7"/>
<path d="MNaN 229.88Q105.11 229.88 104.57 229.35Q104.03 228.82 104.03 227.98Q104.03 227.10 104.57 226.54Q105.11 225.99 NaN 225.99Q106.89 225.99 107.43 226.54Q107.97 227.10 107.97 227.98Q107.97 228.82 107.43 229.35Q106.89 229.88 NaN 229.88" fill="white" fill-opacity="0.7"/>
<path d="M120.76 233.96L117.06 233.96L117.06 231.99L120.78 231.99Q121.91 231.99 122.56 231.36Q123.21 230.72 123.21 229.64L123.21 228.44L123.26 226.28L123.18 226.28Q122.99 227.46 122.06 228.09Q121.12 228.73 119.70 228.73Q117.66 228.73 116.49 227.43Q115.31 226.14 115.31 223.88L115.31 221.10Q115.31 218.84 116.49 217.52Q117.66 216.20 119.70 216.20Q121.12 216.20 122.06 216.87Q122.99 217.54 123.18 218.72L123.23 218.72L123.23 216.44L125.37 216.44L125.37 229.64Q125.37 231.63 124.13 232.80Q122.90 233.96 120.76 233.96M120.35 226.93Q121.70 226.93 122.46 226.09Q123.23 225.25 123.23 223.76L123.23 221.24Q123.23 219.75 122.46 218.91Q121.70 218.07 120.35 218.07Q118.98 218.07 118.23 218.86Q117.47 219.66 117.47 221L117.47 224Q117.47 225.34 118.23 226.14Q118.98 226.93 120.35 226.93" fill="white" fill-opacity="0.7"/>
<path d="M134.80 229.88Q133.91 229.88 133.37 229.35Q132.83 228.82 132.83 227.98Q132.83 227.10 133.37 226.54Q133.91 225.99 134.80 225.99Q135.69 225.99 136.23 226.54Q136.77 227.10 136.77 227.98Q136.77 228.82 136.23 229.35Q135.69 229.88 134.80 229.88" fill="white" fill-opacity="0.7"/>
<path d="M163.79 229.88Q161.39 229.88 NaN 228.54Q158.61 227.19 158.61 224.84L158.61 216.92Q158.61 214.57 NaN 213.22Q161.39 211.88 163.79 211.88Q166.14 211.88 167.54 213.24Q168.93 214.59 168.93 216.92L166.77 216.92Q166.77 215.43 165.99 214.63Q165.21 213.82 163.79 213.82Q162.38 213.82 161.57 214.63Q160.77 215.43 160.77 216.92L160.77 224.84Q160.77 226.33 161.57 227.13Q162.38 227.94 163.79 227.94Q165.21 227.94 165.99 227.13Q166.77 226.33 166.77 224.84L168.93 224.84Q168.93 227.17 167.54 228.52Q166.14 229.88 163.79 229.88" fill="white" fill-opacity="0.7"/>
<path d="MNaN 229.64L173.92 229.64L173.92 212.12L176.08 212.12L176.08 227.67LNaN 227.67" fill="white" fill-opacity="0.7"/>
<path d="M205.65 229.88Q203.61 229.88 202.41 228.74Q201.21 227.60 201.21 225.75Q201.21 224.53 201.76 223.62Q202.31 222.70 203.30 222.19Q204.28 221.67 205.55 221.67L209.63 221.67L209.63 220.64Q209.63 218.07 206.82 218.07Q205.58 218.07 204.81 218.53Q204.04 218.98 203.99 219.80L201.83 219.80Q201.95 218.24 203.28 217.22Q204.62 216.20 206.82 216.20Q209.22 216.20 210.51 217.35Q211.79 218.50 211.79 220.57L211.79 229.64L209.66 229.64L209.66 227.24L209.61 227.24Q209.42 228.46 208.38 229.17Q207.35 229.88 205.65 229.88M206.18 228.06Q207.76 228.06 208.70 227.29Q209.63 226.52 209.63 225.20L209.63 223.35L205.79 223.35Q204.74 223.35 204.08 223.99Q203.42 224.62 203.42 225.68Q203.42 226.78 204.15 227.42Q204.88 228.06 206.18 228.06" fill="white" fill-opacity="0.7"/>
<path d="M218.37 229.64L216.21 229.64L216.21 216.44L218.37 216.44L218.37 218.96L218.39 218.96Q218.56 217.64 219.47 216.92Q220.38 216.20 221.90 216.20Q223.89 216.20 225.06 217.42Q226.24 218.65 226.24 220.76L226.24 229.64L224.08 229.64L224.08 221.14Q224.08 219.63 223.32 218.83Q222.57 218.02 221.27 218.02Q219.93 218.02 219.15 218.86Q218.37 219.70 218.37 221.24" fill="white" fill-opacity="0.7"/>
<path d="M234.83 229.88Q232.86 229.88 231.68 228.56Q230.49 227.24 230.49 224.98L230.49 221.12Q230.49 218.84 231.66 217.52Q232.84 216.20 234.83 216.20Q236.32 216.20 237.29 216.94Q238.26 217.69 238.46 218.96L238.48 218.96L238.43 215.96L238.43 212.12L240.59 212.12L240.59 229.64L238.43 229.64L238.43 227.12L238.41 227.12Q238.24 228.42 237.28 229.15Q236.32 229.88 234.83 229.88M235.55 228.01Q236.90 228.01 237.66 227.17Q238.43 226.33 238.43 224.84L238.43 221.24Q238.43 219.75 237.66 218.91Q236.90 218.07 235.55 218.07Q234.18 218.07 233.42 218.78Q232.65 219.49 232.65 221.12L232.65 224.96Q232.65 226.57 233.42 227.29Q234.18 228.01 235.55 228.01" fill="white" fill-opacity="0.7"/>
<path d="M260.61 229.64L258.40 229.64L262.96 212.12L265.86 212.12L270.40 229.64L268.22 229.64L267.06 224.98L261.76 224.98L260.61 229.64M263.54 217.74L262.19 223.16L266.61 223.16L265.26 217.76Q264.88 216.22 264.66 215.19Q264.45 214.16 264.40 213.85Q264.35 214.16 264.14 215.19Q263.92 216.22 263.54 217.74" fill="white" fill-opacity="0.7"/>
<path d="M278.34 229.64L273.81 229.64L273.81 212.12L278.34 212.12Q280.05 212.12 281.28 212.77Q282.52 213.42 283.20 214.59Q283.89 215.77 283.89 217.38L283.89 224.36Q283.89 225.97 283.20 227.16Q282.52 228.34 281.28 228.99Q280.05 229.64 278.34 229.64M275.97 214.04L275.97 227.72L278.34 227.72Q279.93 227.72 280.83 226.83Q281.73 225.94 281.73 224.36L281.73 217.38Q281.73 215.82 280.83 214.93Q279.93 214.04 278.34 214.04" fill="white" fill-opacity="0.7"/>
<path d="M288.76 232.52L288.76 230.43Q290.32 230.07 291.45 229.06Q292.58 228.06 293.19 226.54Q293.80 225.03 293.80 223.16L293.80 218.84Q293.80 216.94 293.19 215.44Q292.58 213.94 291.45 212.94Q290.32 211.93 288.76 211.57L288.76 209.48Q292.19 210.25 294.08 212.70Q295.96 215.14 295.96 218.84L295.96 223.16Q295.96 226.86 294.08 229.30Q292.19 231.75 288.76 232.52" fill="white" fill-opacity="0.7"/>
<path d="M307.60 229.88Q306.71 229.88 306.17 229.35Q305.63 228.82 305.63 227.98Q305.63 227.10 306.17 226.54Q306.71 225.99 307.60 225.99Q308.49 225.99 309.03 226.54Q309.57 227.10 309.57 227.98Q309.57 228.82 309.03 229.35Q308.49 229.88 307.60 229.88" fill="white" fill-opacity="0.7"/>
<path d="M341.08 229.64L331.72 229.64L331.72 227.67L335.30 227.67L335.30 214.09L331.72 214.09L331.72 212.12L341.08 212.12L341.08 214.09L337.50 214.09L337.50 227.67L341.08 227.67" fill="white" fill-opacity="0.7"/>
<path d="M355.96 229.64L352.12 229.64Q350.49 229.64 349.50 228.69Q348.52 227.74 348.52 226.16L348.52 218.41L344.73 218.41L344.73 216.44L348.52 216.44L348.52 212.72L350.68 212.72L350.68 216.44L356.08 216.44L356.08 218.41L350.68 218.41L350.68 226.16Q350.68 226.83 351.08 227.25Q351.47 227.67 352.12 227.67L355.96 227.67" fill="white" fill-opacity="0.7"/>
<path d="M366.26 219.32L364.17 219.32L363.98 212.12L366.42 212.12" fill="white" fill-opacity="0.7"/>
<path d="M380.13 229.83L379.07 229.83Q376.86 229.83 375.65 228.84Q374.44 227.84 374.44 226.02L376.60 226.02Q376.60 226.93 377.25 227.44Q377.90 227.96 379.07 227.96L380.13 227.96Q381.33 227.96 381.99 227.43Q382.65 226.90 382.65 225.94Q382.65 224.24 381.09 224.02L377.44 223.50Q376.10 223.30 375.35 222.38Q374.61 221.46 374.61 219.94Q374.61 218.22 375.80 217.23Q376.98 216.25 379.07 216.25L380.13 216.25Q382.05 216.25 383.26 217.20Q384.47 218.14 384.57 219.68L382.38 219.68Q382.34 218.98 381.72 218.53Q381.11 218.07 380.13 218.07L379.07 218.07Q377.97 218.07 377.34 218.58Q376.72 219.08 376.72 219.94Q376.72 221.34 377.99 221.53L381.40 222.01Q384.76 222.49 384.76 225.94Q384.76 227.79 383.55 228.81Q382.34 229.83 380.13 229.83" fill="white" fill-opacity="0.7"/>
<path d="M405.57 233.96L403.41 233.96L403.41 216.44L405.57 216.44L405.57 218.96L405.59 218.96Q405.76 217.66 406.72 216.93Q407.68 216.20 409.17 216.20Q411.16 216.20 412.34 217.51Q413.51 218.82 413.51 221.10L413.51 224.96Q413.51 227.24 412.34 228.56Q411.16 229.88 409.17 229.88Q407.68 229.88 406.72 229.14Q405.76 228.39 405.59 227.12L405.52 227.12L405.57 230.12L405.57 233.96M408.45 228.01Q409.82 228.01 410.58 227.29Q411.35 226.57 411.35 224.96L411.35 221.12Q411.35 219.49 410.58 218.78Q409.82 218.07 408.45 218.07Q407.13 218.07 406.35 218.91Q405.57 219.75 405.57 221.24L405.57 224.84Q405.57 226.33 406.35 227.17Q407.13 228.01 408.45 228.01" fill="white" fill-opacity="0.7"/>
<path d="M422.80 229.83Q420.42 229.83 419.02 228.44Q417.62 227.05 417.62 224.55L417.62 221.53Q417.62 219.01 419.01 217.63Q420.40 216.25 422.80 216.25Q425.20 216.25 426.59 217.63Q427.98 219.01 427.98 221.53L427.98 224.55Q427.98 227.05 426.58 228.44Q425.18 229.83 422.80 229.83M422.80 227.91Q424.22 227.91 425.02 227.12Q425.82 226.33 425.82 224.79L425.82 221.29Q425.82 219.75 425.02 218.96Q424.22 218.17 422.80 218.17Q421.41 218.17 420.59 218.96Q419.78 219.75 419.78 221.29L419.78 224.79Q419.78 226.33 420.59 227.12Q421.41 227.91 422.80 227.91" fill="white" fill-opacity="0.7"/>
<path d="M437.73 229.83L436.67 229.83Q434.46 229.83 433.25 228.84Q432.04 227.84 432.04 226.02L434.20 226.02Q434.20 226.93 434.85 227.44Q435.50 227.96 436.67 227.96L437.73 227.96Q438.93 227.96 439.59 227.43Q440.25 226.90 440.25 225.94Q440.25 224.24 438.69 224.02L435.04 223.50Q433.70 223.30 432.95 222.38Q432.21 221.46 432.21 219.94Q432.21 218.22 433.40 217.23Q434.58 216.25 436.67 216.25L437.73 216.25Q439.65 216.25 440.86 217.20Q442.07 218.14 442.17 219.68L439.98 219.68Q439.94 218.98 439.32 218.53Q438.71 218.07 437.73 218.07L436.67 218.07Q435.57 218.07 434.94 218.58Q434.32 219.08 434.32 219.94Q434.32 221.34 435.59 221.53L439 222.01Q442.36 222.49 442.36 225.94Q442.36 227.79 441.15 228.81Q439.94 229.83 437.73 229.83" fill="white" fill-opacity="0.7"/>
<path d="M452.13 229.83L451.07 229.83Q448.86 229.83 447.65 228.84Q446.44 227.84 446.44 226.02L448.60 226.02Q448.60 226.93 449.25 227.44Q449.90 227.96 451.07 227.96L452.13 227.96Q453.33 227.96 453.99 227.43Q454.65 226.90 454.65 225.94Q454.65 224.24 453.09 224.02L449.44 223.50Q448.10 223.30 447.35 222.38Q446.61 221.46 446.61 219.94Q446.61 218.22 447.80 217.23Q448.98 216.25 451.07 216.25L452.13 216.25Q454.05 216.25 455.26 217.20Q456.47 218.14 456.57 219.68L454.38 219.68Q454.34 218.98 453.72 218.53Q453.11 218.07 452.13 218.07L451.07 218.07Q449.97 218.07 449.34 218.58Q448.72 219.08 448.72 219.94Q448.72 221.34 449.99 221.53L453.40 222.01Q456.76 222.49 456.76 225.94Q456.76 227.79 455.55 228.81Q454.34 229.83 452.13 229.83" fill="white" fill-opacity="0.7"/>
<path d="M472.12 229.64L460.84 229.64L460.84 227.67L465.52 227.67L465.52 218.41L461.32 218.41L461.32 216.44L467.68 216.44L467.68 227.67L472.12 227.67L472.12 229.64M466.36 214.06Q465.57 214.06 465.11 213.66Q464.66 213.25 464.66 212.55Q464.66 211.83 465.11 211.41Q465.57 210.99 466.36 210.99Q467.15 210.99 467.61 211.41Q468.06 211.83 468.06 212.55Q468.06 213.25 467.61 213.66Q467.15 214.06 466.36 214.06" fill="white" fill-opacity="0.7"/>
<path d="M481.17 229.88Q479.68 229.88 478.72 229.15Q477.76 228.42 477.59 227.12L477.57 227.12L477.57 229.64L475.41 229.64L475.41 212.12L477.57 212.12L477.57 215.96L477.52 218.96L477.54 218.96Q477.74 217.69 478.71 216.94Q479.68 216.20 481.17 216.20Q483.16 216.20 484.34 217.52Q485.51 218.84 485.51 221.12L485.51 224.98Q485.51 227.24 484.34 228.56Q483.16 229.88 481.17 229.88M480.45 228.01Q481.82 228.01 482.58 227.29Q483.35 226.57 483.35 224.96L483.35 221.12Q483.35 219.49 482.58 218.78Q481.82 218.07 480.45 218.07Q479.13 218.07 478.35 218.91Q477.57 219.75 477.57 221.24L477.57 224.84Q477.57 226.33 478.35 227.17Q479.13 228.01 480.45 228.01" fill="white" fill-opacity="0.7"/>
<path d="M500.80 229.64L496.72 229.64Q494.97 229.64 493.92 228.62Q492.88 227.60 492.88 225.92L492.88 214.09L488.32 214.09L488.32 212.12L495.04 212.12L495.04 225.92Q495.04 226.74 495.50 227.20Q495.95 227.67 496.72 227.67L500.80 227.67" fill="white" fill-opacity="0.7"/>
<path d="M509.20 229.88Q506.87 229.88 505.44 228.48Q504.02 227.07 504.02 224.60L504.02 221.48Q504.02 219.01 505.44 217.60Q506.87 216.20 509.20 216.20Q510.76 216.20 511.92 216.82Q513.09 217.45 513.74 218.58Q514.38 219.70 514.38 221.24L514.38 223.59L506.13 223.59L506.13 224.84Q506.13 226.30 506.97 227.16Q507.81 228.01 509.20 228.01Q510.40 228.01 511.18 227.54Q511.96 227.07 512.13 226.28L514.29 226.28Q514.07 227.94 512.68 228.91Q511.29 229.88 509.20 229.88M506.13 221.24L506.13 221.91L512.27 221.91L512.27 221.24Q512.27 219.68 511.47 218.83Q510.66 217.98 509.20 217.98Q507.74 217.98 506.93 218.83Q506.13 219.68 506.13 221.24" fill="white" fill-opacity="0.7"/>
<path d="M543.16 229.64L539.32 229.64Q537.69 229.64 536.70 228.69Q535.72 227.74 535.72 226.16L535.72 218.41L531.93 218.41L531.93 216.44L535.72 216.44L535.72 212.72L537.88 212.72L537.88 216.44L543.28 216.44L543.28 218.41L537.88 218.41L537.88 226.16Q537.88 226.83 538.28 227.25Q538.67 227.67 539.32 227.67L543.16 227.67" fill="white" fill-opacity="0.7"/>
<path d="M552.40 229.83Q550.02 229.83 548.62 228.44Q547.22 227.05 547.22 224.55L547.22 221.53Q547.22 219.01 548.61 217.63Q550 216.25 552.40 216.25Q554.80 216.25 556.19 217.63Q557.58 219.01 557.58 221.53L557.58 224.55Q557.58 227.05 556.18 228.44Q554.78 229.83 552.40 229.83M552.40 227.91Q553.82 227.91 554.62 227.12Q555.42 226.33 555.42 224.79L555.42 221.29Q555.42 219.75 554.62 218.96Q553.82 218.17 552.40 218.17Q551.01 218.17 550.19 218.96Q549.38 219.75 549.38 221.29L549.38 224.79Q549.38 226.33 550.19 227.12Q551.01 227.91 552.40 227.91" fill="white" fill-opacity="0.7"/>
<path d="M581.18 229.88Q578.90 229.88 577.53 228.52Q576.16 227.17 576.16 224.84L576.16 216.44L578.32 216.44L578.32 224.84Q578.32 226.28 579.09 227.13Q579.86 227.98 581.18 227.98Q582.52 227.98 583.30 227.13Q584.08 226.28 584.08 224.84L584.08 216.44L586.24 216.44L586.24 224.84Q586.24 227.17 584.85 228.52Q583.46 229.88 581.18 229.88" fill="white" fill-opacity="0.7"/>
<path d="M596.13 229.83L595.07 229.83Q592.86 229.83 591.65 228.84Q590.44 227.84 590.44 226.02L592.60 226.02Q592.60 226.93 593.25 227.44Q593.90 227.96 595.07 227.96L596.13 227.96Q597.33 227.96 597.99 227.43Q598.65 226.90 598.65 225.94Q598.65 224.24 597.09 224.02L593.44 223.50Q592.10 223.30 591.35 222.38Q590.61 221.46 590.61 219.94Q590.61 218.22 591.80 217.23Q592.98 216.25 595.07 216.25L596.13 216.25Q598.05 216.25 599.26 217.20Q600.47 218.14 600.57 219.68L598.38 219.68Q598.34 218.98 597.72 218.53Q597.11 218.07 596.13 218.07L595.07 218.07Q593.97 218.07 593.34 218.58Q592.72 219.08 592.72 219.94Q592.72 221.34 593.99 221.53L597.40 222.01Q600.76 222.49 600.76 225.94Q600.76 227.79 599.55 228.81Q598.34 229.83 596.13 229.83" fill="white" fill-opacity="0.7"/>
<path d="M610 229.88Q607.67 229.88 606.24 228.48Q604.82 227.07 604.82 224.60L604.82 221.48Q604.82 219.01 606.24 217.60Q607.67 216.20 610 216.20Q611.56 216.20 612.72 216.82Q613.89 217.45 614.54 218.58Q615.18 219.70 615.18 221.24L615.18 223.59L606.93 223.59L606.93 224.84Q606.93 226.30 607.77 227.16Q608.61 228.01 610 228.01Q611.20 228.01 611.98 227.54Q612.76 227.07 612.93 226.28L615.09 226.28Q614.87 227.94 613.48 228.91Q612.09 229.88 610 229.88M606.93 221.24L606.93 221.91L613.07 221.91L613.07 221.24Q613.07 219.68 612.27 218.83Q611.46 217.98 610 217.98Q608.54 217.98 607.73 218.83Q606.93 219.68 606.93 221.24" fill="white" fill-opacity="0.7"/>
<path d="M643.96 229.64L640.12 229.64Q638.49 229.64 637.50 228.69Q636.52 227.74 636.52 226.16L636.52 218.41L632.73 218.41L632.73 216.44L636.52 216.44L636.52 212.72L638.68 212.72L638.68 216.44L644.08 216.44L644.08 218.41L638.68 218.41L638.68 226.16Q638.68 226.83 639.08 227.25Q639.47 227.67 640.12 227.67L643.96 227.67" fill="white" fill-opacity="0.7"/>
<path d="M650.37 229.64L648.21 229.64L648.21 212.12L650.37 212.12L650.37 218.96L650.39 218.96Q650.56 217.64 651.47 216.92Q652.38 216.20 653.90 216.20Q655.89 216.20 657.06 217.42Q658.24 218.65 658.24 220.76L658.24 229.64L656.08 229.64L656.08 221.12Q656.08 219.63 655.32 218.83Q654.57 218.02 653.27 218.02Q651.93 218.02 651.15 218.86Q650.37 219.70 650.37 221.24" fill="white" fill-opacity="0.7"/>
<path d="M673.72 229.64L662.44 229.64L662.44 227.67L667.12 227.67L667.12 218.41L662.92 218.41L662.92 216.44L669.28 216.44L669.28 227.67L673.72 227.67L673.72 229.64M667.96 214.06Q667.17 214.06 666.71 213.66Q666.26 213.25 666.26 212.55Q666.26 211.83 666.71 211.41Q667.17 210.99 667.96 210.99Q668.75 210.99 669.21 211.41Q669.66 211.83 669.66 212.55Q669.66 213.25 669.21 213.66Q668.75 214.06 667.96 214.06" fill="white" fill-opacity="0.7"/>
<path d="M682.53 229.83L681.47 229.83Q679.26 229.83 678.05 228.84Q676.84 227.84 676.84 226.02L679 226.02Q679 226.93 679.65 227.44Q680.30 227.96 681.47 227.96L682.53 227.96Q683.73 227.96 684.39 227.43Q685.05 226.90 685.05 225.94Q685.05 224.24 683.49 224.02L679.84 223.50Q678.50 223.30 677.75 222.38Q677.01 221.46 677.01 219.94Q677.01 218.22 678.20 217.23Q679.38 216.25 681.47 216.25L682.53 216.25Q684.45 216.25 685.66 217.20Q686.87 218.14 686.97 219.68L684.78 219.68Q684.74 218.98 684.12 218.53Q683.51 218.07 682.53 218.07L681.47 218.07Q680.37 218.07 679.74 218.58Q679.12 219.08 679.12 219.94Q679.12 221.34 680.39 221.53L683.80 222.01Q687.16 222.49 687.16 225.94Q687.16 227.79 685.95 228.81Q684.74 229.83 682.53 229.83" fill="white" fill-opacity="0.7"/>
<path d="M710.99 229.88Q708.59 229.88 707.15 228.54Q705.71 227.19 705.71 224.84L705.71 221.24Q705.71 218.89 707.15 217.54Q708.59 216.20 710.99 216.20Q713.27 216.20 714.68 217.42Q716.08 218.65 716.15 220.76L713.99 220.76Q713.92 219.49 713.13 218.80Q712.34 218.12 710.99 218.12Q709.58 218.12 708.72 218.92Q707.87 219.73 707.87 221.22L707.87 224.84Q707.87 226.33 708.72 227.14Q709.58 227.96 710.99 227.96Q712.34 227.96 713.13 227.26Q713.92 226.57 713.99 225.32L716.15 225.32Q716.08 227.43 714.68 228.66Q713.27 229.88 710.99 229.88" fill="white" fill-opacity="0.7"/>
<path d="M725.20 229.83Q722.82 229.83 721.42 228.44Q720.02 227.05 720.02 224.55L720.02 221.53Q720.02 219.01 721.41 217.63Q722.80 216.25 725.20 216.25Q727.60 216.25 728.99 217.63Q730.38 219.01 730.38 221.53L730.38 224.55Q730.38 227.05 728.98 228.44Q727.58 229.83 725.20 229.83M725.20 227.91Q726.62 227.91 727.42 227.12Q728.22 226.33 728.22 224.79L728.22 221.29Q728.22 219.75 727.42 218.96Q726.62 218.17 725.20 218.17Q723.81 218.17 722.99 218.96Q722.18 219.75 722.18 221.29L722.18 224.79Q722.18 226.33 722.99 227.12Q723.81 227.91 725.20 227.91" fill="white" fill-opacity="0.7"/>
<path d="M736.77 229.64L734.61 229.64L734.61 216.44L736.77 216.44L736.77 218.96L736.79 218.96Q736.96 217.64 737.87 216.92Q738.78 216.20 740.30 216.20Q742.29 216.20 743.46 217.42Q744.64 218.65 744.64 220.76L744.64 229.64L742.48 229.64L742.48 221.14Q742.48 219.63 741.72 218.83Q740.97 218.02 739.67 218.02Q738.33 218.02 737.55 218.86Q736.77 219.70 736.77 221.24" fill="white" fill-opacity="0.7"/>
<path d="M754.12 229.64L751.96 229.64L751.96 220.21L748.12 220.21L748.12 218.24L751.96 218.24L751.96 215.48Q751.96 213.92 752.94 213.02Q753.93 212.12 755.66 212.12L759.52 212.12L759.52 214.09L755.66 214.09Q754.12 214.09 754.12 215.48L754.12 218.24L759.52 218.24L759.52 220.21L754.12 220.21" fill="white" fill-opacity="0.7"/>
<path d="M774.52 229.64L763.24 229.64L763.24 227.67L767.92 227.67L767.92 218.41L763.72 218.41L763.72 216.44L770.08 216.44L770.08 227.67L774.52 227.67L774.52 229.64M768.76 214.06Q767.97 214.06 767.51 213.66Q767.06 213.25 767.06 212.55Q767.06 211.83 767.51 211.41Q767.97 210.99 768.76 210.99Q769.55 210.99 770.01 211.41Q770.46 211.83 770.46 212.55Q770.46 213.25 770.01 213.66Q769.55 214.06 768.76 214.06" fill="white" fill-opacity="0.7"/>
<path d="M783.16 233.96L779.46 233.96L779.46 231.99L783.18 231.99Q784.31 231.99 784.96 231.36Q785.61 230.72 785.61 229.64L785.61 228.44L785.66 226.28L785.58 226.28Q785.39 227.46 784.46 228.09Q783.52 228.73 782.10 228.73Q780.06 228.73 778.89 227.43Q777.71 226.14 777.71 223.88L777.71 221.10Q777.71 218.84 778.89 217.52Q780.06 216.20 782.10 216.20Q783.52 216.20 784.46 216.87Q785.39 217.54 785.58 218.72L785.63 218.72L785.63 216.44L787.77 216.44L787.77 229.64Q787.77 231.63 786.53 232.80Q785.30 233.96 783.16 233.96M782.75 226.93Q784.10 226.93 784.86 226.09Q785.63 225.25 785.63 223.76L785.63 221.24Q785.63 219.75 784.86 218.91Q784.10 218.07 782.75 218.07Q781.38 218.07 780.63 218.86Q779.87 219.66 779.87 221L779.87 224Q779.87 225.34 780.63 226.14Q781.38 226.93 782.75 226.93" fill="white" fill-opacity="0.7"/>
<path d="M797.18 229.88Q794.90 229.88 793.53 228.52Q792.16 227.17 792.16 224.84L792.16 216.44L794.32 216.44L794.32 224.84Q794.32 226.28 795.09 227.13Q795.86 227.98 797.18 227.98Q798.52 227.98 799.30 227.13Q800.08 226.28 800.08 224.84L800.08 216.44L802.24 216.44L802.24 224.84Q802.24 227.17 800.85 228.52Q799.46 229.88 797.18 229.88" fill="white" fill-opacity="0.7"/>
<path d="M809.25 229.64L807.09 229.64L807.09 216.44L809.25 216.44L809.25 218.96L809.30 218.96Q809.46 217.69 810.38 216.94Q811.29 216.20 812.82 216.20Q814.89 216.20 816 217.44Q817.12 218.67 817.12 220.95L817.12 222.08L814.96 222.08L814.96 220.95Q814.96 218.07 812.15 218.07Q810.74 218.07 809.99 218.89Q809.25 219.70 809.25 221.24" fill="white" fill-opacity="0.7"/>
<path d="M824.85 229.88Q822.81 229.88 821.61 228.74Q820.41 227.60 820.41 225.75Q820.41 224.53 820.96 223.62Q821.51 222.70 822.50 222.19Q823.48 221.67 824.75 221.67L828.83 221.67L828.83 220.64Q828.83 218.07 826.02 218.07Q824.78 218.07 824.01 218.53Q823.24 218.98 823.19 219.80L821.03 219.80Q821.15 218.24 822.48 217.22Q823.82 216.20 826.02 216.20Q828.42 216.20 829.71 217.35Q830.99 218.50 830.99 220.57L830.99 229.64L828.86 229.64L828.86 227.24L828.81 227.24Q828.62 228.46 827.58 229.17Q826.55 229.88 824.85 229.88M825.38 228.06Q826.96 228.06 827.90 227.29Q828.83 226.52 828.83 225.20L828.83 223.35L824.99 223.35Q823.94 223.35 823.28 223.99Q822.62 224.62 822.62 225.68Q822.62 226.78 823.35 227.42Q824.08 228.06 825.38 228.06" fill="white" fill-opacity="0.7"/>
<path d="M845.56 229.64L841.72 229.64Q840.09 229.64 839.10 228.69Q838.12 227.74 838.12 226.16L838.12 218.41L834.33 218.41L834.33 216.44L838.12 216.44L838.12 212.72L840.28 212.72L840.28 216.44L845.68 216.44L845.68 218.41L840.28 218.41L840.28 226.16Q840.28 226.83 840.68 227.25Q841.07 227.67 841.72 227.67L845.56 227.67" fill="white" fill-opacity="0.7"/>
<path d="M860.92 229.64L849.64 229.64L849.64 227.67L854.32 227.67L854.32 218.41L850.12 218.41L850.12 216.44L856.48 216.44L856.48 227.67L860.92 227.67L860.92 229.64M855.16 214.06Q854.37 214.06 853.91 213.66Q853.46 213.25 853.46 212.55Q853.46 211.83 853.91 211.41Q854.37 210.99 855.16 210.99Q855.95 210.99 856.41 211.41Q856.86 211.83 856.86 212.55Q856.86 213.25 856.41 213.66Q855.95 214.06 855.16 214.06" fill="white" fill-opacity="0.7"/>
<path d="M869.20 229.83Q866.82 229.83 865.42 228.44Q864.02 227.05 864.02 224.55L864.02 221.53Q864.02 219.01 865.41 217.63Q866.80 216.25 869.20 216.25Q871.60 216.25 872.99 217.63Q874.38 219.01 874.38 221.53L874.38 224.55Q874.38 227.05 872.98 228.44Q871.58 229.83 869.20 229.83M869.20 227.91Q870.62 227.91 871.42 227.12Q872.22 226.33 872.22 224.79L872.22 221.29Q872.22 219.75 871.42 218.96Q870.62 218.17 869.20 218.17Q867.81 218.17 866.99 218.96Q866.18 219.75 866.18 221.29L866.18 224.79Q866.18 226.33 866.99 227.12Q867.81 227.91 869.20 227.91" fill="white" fill-opacity="0.7"/>
<path d="M880.77 229.64L878.61 229.64L878.61 216.44L880.77 216.44L880.77 218.96L880.79 218.96Q880.96 217.64 881.87 216.92Q882.78 216.20 884.30 216.20Q886.29 216.20 887.46 217.42Q888.64 218.65 888.64 220.76L888.64 229.64L886.48 229.64L886.48 221.14Q886.48 219.63 885.72 218.83Q884.97 218.02 883.67 218.02Q882.33 218.02 881.55 218.86Q880.77 219.70 880.77 221.24" fill="white" fill-opacity="0.7"/>
<path d="M912.40 229.83Q910.02 229.83 908.62 228.44Q907.22 227.05 907.22 224.55L907.22 221.53Q907.22 219.01 908.61 217.63Q910 216.25 912.40 216.25Q914.80 216.25 916.19 217.63Q917.58 219.01 917.58 221.53L917.58 224.55Q917.58 227.05 916.18 228.44Q914.78 229.83 912.40 229.83M912.40 227.91Q913.82 227.91 914.62 227.12Q915.42 226.33 915.42 224.79L915.42 221.29Q915.42 219.75 914.62 218.96Q913.82 218.17 912.40 218.17Q911.01 218.17 910.19 218.96Q909.38 219.75 909.38 221.29L909.38 224.79Q909.38 226.33 910.19 227.12Q911.01 227.91 912.40 227.91" fill="white" fill-opacity="0.7"/>
<path d="M923.97 229.64L921.81 229.64L921.81 216.44L923.97 216.44L923.97 218.96L923.99 218.96Q924.16 217.64 925.07 216.92Q925.98 216.20 927.50 216.20Q929.49 216.20 930.66 217.42Q931.84 218.65 931.84 220.76L931.84 229.64L929.68 229.64L929.68 221.14Q929.68 219.63 928.92 218.83Q928.17 218.02 926.87 218.02Q925.53 218.02 924.75 218.86Q923.97 219.70 923.97 221.24" fill="white" fill-opacity="0.7"/>
<path d="M947.20 229.64L943.12 229.64Q941.37 229.64 940.32 228.62Q939.28 227.60 939.28 225.92L939.28 214.09L934.72 214.09L934.72 212.12L941.44 212.12L941.44 225.92Q941.44 226.74 941.90 227.20Q942.35 227.67 943.12 227.67L947.20 227.67" fill="white" fill-opacity="0.7"/>
<path d="M954.93 233.96L952.67 233.96L954.62 228.82L949.70 216.44L952.02 216.44L955.14 224.60Q955.34 225.08 955.50 225.61Q955.67 226.14 955.74 226.52Q955.82 226.14 955.98 225.61Q956.15 225.08 956.32 224.60L959.22 216.44L961.50 216.44" fill="white" fill-opacity="0.7"/>
<path d="M989.56 229.64L985.72 229.64Q984.09 229.64 983.10 228.69Q982.12 227.74 982.12 226.16L982.12 218.41L978.33 218.41L978.33 216.44L982.12 216.44L982.12 212.72L984.28 212.72L984.28 216.44L989.68 216.44L989.68 218.41L984.28 218.41L984.28 226.16Q984.28 226.83 984.68 227.25Q985.07 227.67 985.72 227.67L989.56 227.67" fill="white" fill-opacity="0.7"/>
<path d="M998.80 229.83Q996.42 229.83 995.02 228.44Q993.62 227.05 993.62 224.55L993.62 221.53Q993.62 219.01 995.01 217.63Q996.40 216.25 998.80 216.25Q1001.20 216.25 1002.59 217.63Q1003.98 219.01 1003.98 221.53L1003.98 224.55Q1003.98 227.05 1002.58 228.44Q1001.18 229.83 998.80 229.83M998.80 227.91Q1000.22 227.91 1001.02 227.12Q1001.82 226.33 1001.82 224.79L1001.82 221.29Q1001.82 219.75 1001.02 218.96Q1000.22 218.17 998.80 218.17Q997.41 218.17 996.59 218.96Q995.78 219.75 995.78 221.29L995.78 224.79Q995.78 226.33 996.59 227.12Q997.41 227.91 998.80 227.91" fill="white" fill-opacity="0.7"/>
<path d="M1024.77 229.64L1022.61 229.64L1022.61 216.44L1024.77 216.44L1024.77 218.96L1024.79 218.96Q1024.96 217.64 1025.87 216.92Q1026.78 216.20 1028.30 216.20Q1030.29 216.20 1031.46 217.42Q1032.64 218.65 1032.64 220.76L1032.64 229.64L1030.48 229.64L1030.48 221.14Q1030.48 219.63 1029.72 218.83Q1028.97 218.02 1027.67 218.02Q1026.33 218.02 1025.55 218.86Q1024.77 219.70 1024.77 221.24" fill="white" fill-opacity="0.7"/>
<path d="M1042 229.88Q1039.67 229.88 1038.24 228.48Q1036.82 227.07 1036.82 224.60L1036.82 221.48Q1036.82 219.01 1038.24 217.60Q1039.67 216.20 1042 216.20Q1043.56 216.20 1044.72 216.82Q1045.89 217.45 1046.54 218.58Q1047.18 219.70 1047.18 221.24L1047.18 223.59L1038.93 223.59L1038.93 224.84Q1038.93 226.30 1039.77 227.16Q1040.61 228.01 1042 228.01Q1043.20 228.01 1043.98 227.54Q1044.76 227.07 1044.93 226.28L1047.09 226.28Q1046.87 227.94 1045.48 228.91Q1044.09 229.88 1042 229.88M1038.93 221.24L1038.93 221.91L1045.07 221.91L1045.07 221.24Q1045.07 219.68 1044.27 218.83Q1043.46 217.98 1042 217.98Q1040.54 217.98 1039.73 218.83Q1038.93 219.68 1038.93 221.24" fill="white" fill-opacity="0.7"/>
<path d="M1054.48 229.64L1052.10 229.64L1049.94 216.44L1051.82 216.44L1053.16 225.75Q1053.23 226.28 1053.30 226.92Q1053.38 227.55 1053.40 227.96Q1053.45 227.55 1053.51 226.92Q1053.57 226.28 1053.66 225.75L1055.32 216.44L1057.48 216.44L1059.14 225.75Q1059.23 226.28 1059.32 226.92Q1059.40 227.55 1059.42 227.96Q1059.47 227.55 1059.54 226.92Q1059.62 226.28 1059.69 225.75L1061.08 216.44L1062.86 216.44L1060.60 229.64L1058.22 229.64L1056.71 220.52Q1056.62 219.85 1056.53 219.09Q1056.45 218.34 1056.40 217.93Q1056.38 218.34 1056.28 219.09Q1056.18 219.85 1056.06 220.52" fill="white" fill-opacity="0.7"/>
<path d="M1084.43 229.88Q1082.46 229.88 1081.28 228.56Q1080.09 227.24 1080.09 224.98L1080.09 221.12Q1080.09 218.84 1081.26 217.52Q1082.44 216.20 1084.43 216.20Q1085.92 216.20 1086.89 216.94Q1087.86 217.69 1088.06 218.96L1088.08 218.96L1088.03 215.96L1088.03 212.12L1090.19 212.12L1090.19 229.64L1088.03 229.64L1088.03 227.12L1088.01 227.12Q1087.84 228.42 1086.88 229.15Q1085.92 229.88 1084.43 229.88M1085.15 228.01Q1086.50 228.01 1087.26 227.17Q1088.03 226.33 1088.03 224.84L1088.03 221.24Q1088.03 219.75 1087.26 218.91Q1086.50 218.07 1085.15 218.07Q1083.78 218.07 1083.02 218.78Q1082.25 219.49 1082.25 221.12L1082.25 224.96Q1082.25 226.57 1083.02 227.29Q1083.78 228.01 1085.15 228.01" fill="white" fill-opacity="0.7"/>
<path d="M1098.45 229.88Q1096.41 229.88 1095.21 228.74Q1094.01 227.60 1094.01 225.75Q1094.01 224.53 1094.56 223.62Q1095.11 222.70 1096.10 222.19Q1097.08 221.67 1098.35 221.67L1102.43 221.67L1102.43 220.64Q1102.43 218.07 1099.62 218.07Q1098.38 218.07 1097.61 218.53Q1096.84 218.98 1096.79 219.80L1094.63 219.80Q1094.75 218.24 1096.08 217.22Q1097.42 216.20 1099.62 216.20Q1102.02 216.20 1103.31 217.35Q1104.59 218.50 1104.59 220.57L1104.59 229.64L1102.46 229.64L1102.46 227.24L1102.41 227.24Q1102.22 228.46 1101.18 229.17Q1100.15 229.88 1098.45 229.88M1098.98 228.06Q1100.56 228.06 1101.50 227.29Q1102.43 226.52 1102.43 225.20L1102.43 223.35L1098.59 223.35Q1097.54 223.35 1096.88 223.99Q1096.22 224.62 1096.22 225.68Q1096.22 226.78 1096.95 227.42Q1097.68 228.06 1098.98 228.06" fill="white" fill-opacity="0.7"/>
<path d="M1119.16 229.64L1115.32 229.64Q1113.69 229.64 1112.70 228.69Q1111.72 227.74 1111.72 226.16L1111.72 218.41L1107.93 218.41L1107.93 216.44L1111.72 216.44L1111.72 212.72L1113.88 212.72L1113.88 216.44L1119.28 216.44L1119.28 218.41L1113.88 218.41L1113.88 226.16Q1113.88 226.83 1114.28 227.25Q1114.67 227.67 1115.32 227.67L1119.16 227.67" fill="white" fill-opacity="0.7"/>
<path d="M1127.25 229.88Q1125.21 229.88 1124.01 228.74Q1122.81 227.60 1122.81 225.75Q1122.81 224.53 1123.36 223.62Q1123.91 222.70 1124.90 222.19Q1125.88 221.67 1127.15 221.67L1131.23 221.67L1131.23 220.64Q1131.23 218.07 1128.42 218.07Q1127.18 218.07 1126.41 218.53Q1125.64 218.98 1125.59 219.80L1123.43 219.80Q1123.55 218.24 1124.88 217.22Q1126.22 216.20 1128.42 216.20Q1130.82 216.20 1132.11 217.35Q1133.39 218.50 1133.39 220.57L1133.39 229.64L1131.26 229.64L1131.26 227.24L1131.21 227.24Q1131.02 228.46 1129.98 229.17Q1128.95 229.88 1127.25 229.88M1127.78 228.06Q1129.36 228.06 1130.30 227.29Q1131.23 226.52 1131.23 225.20L1131.23 223.35L1127.39 223.35Q1126.34 223.35 1125.68 223.99Q1125.02 224.62 1125.02 225.68Q1125.02 226.78 1125.75 227.42Q1126.48 228.06 1127.78 228.06" fill="white" fill-opacity="0.7"/>
<path d="M77.20 261.88Q74.87 261.88 73.44 260.48Q72.02 259.07 72.02 256.60L72.02 253.48Q72.02 251.01 73.44 249.60Q74.87 248.20 77.20 248.20Q78.76 248.20 79.92 248.82Q81.09 249.45 81.74 250.58Q82.38 251.70 82.38 253.24L82.38 255.59L74.13 255.59L74.13 256.84Q74.13 258.30 74.97 259.16Q75.81 260.01 77.20 260.01Q78.40 260.01 79.18 259.54Q79.96 259.07 80.13 258.28L82.29 258.28Q82.07 259.94 80.68 260.91Q79.29 261.88 77.20 261.88M74.13 253.24L74.13 253.91L80.27 253.91L80.27 253.24Q80.27 251.68 79.47 250.83Q78.66 249.98 77.20 249.98Q75.74 249.98 74.93 250.83Q74.13 251.68 74.13 253.24" fill="white" fill-opacity="0.7"/>
<path d="M88.77 261.64L86.61 261.64L86.61 248.44L88.77 248.44L88.77 250.96L88.79 250.96Q88.96 249.64 89.87 248.92Q90.78 248.20 92.30 248.20Q94.29 248.20 95.46 249.42Q96.64 250.65 96.64 252.76L96.64 261.64L94.48 261.64L94.48 253.14Q94.48 251.63 93.72 250.83Q92.97 250.02 91.67 250.02Q90.33 250.02 89.55 250.86Q88.77 251.70 88.77 253.24" fill="white" fill-opacity="0.7"/>
<path d="M111.16 261.64L107.32 261.64Q105.69 261.64 104.70 260.69Q103.72 259.74 103.72 258.16L103.72 250.41L99.93 250.41L99.93 248.44L103.72 248.44L103.72 244.72L105.88 244.72L105.88 248.44L111.28 248.44L111.28 250.41L105.88 250.41L105.88 258.16Q105.88 258.83 106.28 259.25Q106.67 259.67 107.32 259.67L111.16 259.67" fill="white" fill-opacity="0.7"/>
<path d="M126.52 261.64L115.24 261.64L115.24 259.67L119.92 259.67L119.92 250.41L115.72 250.41L115.72 248.44L122.08 248.44L122.08 259.67L126.52 259.67L126.52 261.64M120.76 246.06Q119.97 246.06 119.51 245.66Q119.06 245.25 119.06 244.55Q119.06 243.83 119.51 243.41Q119.97 242.99 120.76 242.99Q121.55 242.99 122.01 243.41Q122.46 243.83 122.46 244.55Q122.46 245.25 122.01 245.66Q121.55 246.06 120.76 246.06" fill="white" fill-opacity="0.7"/>
<path d="M139.96 261.64L136.12 261.64Q134.49 261.64 133.50 260.69Q132.52 259.74 132.52 258.16L132.52 250.41L128.73 250.41L128.73 248.44L132.52 248.44L132.52 244.72L134.68 244.72L134.68 248.44L140.08 248.44L140.08 250.41L134.68 250.41L134.68 258.16Q134.68 258.83 135.08 259.25Q135.47 259.67 136.12 259.67L139.96 259.67" fill="white" fill-opacity="0.7"/>
<path d="M155.32 261.64L144.04 261.64L144.04 259.67L148.72 259.67L148.72 250.41L144.52 250.41L144.52 248.44L150.88 248.44L150.88 259.67L155.32 259.67L155.32 261.64M149.56 246.06Q148.77 246.06 148.31 245.66Q147.86 245.25 147.86 244.55Q147.86 243.83 148.31 243.41Q148.77 242.99 149.56 242.99Q150.35 242.99 150.81 243.41Q151.26 243.83 151.26 244.55Q151.26 245.25 150.81 245.66Q150.35 246.06 149.56 246.06" fill="white" fill-opacity="0.7"/>
<path d="M163.60 261.88Q161.27 261.88 159.84 260.48Q158.42 259.07 158.42 256.60L158.42 253.48Q158.42 251.01 159.84 249.60Q161.27 248.20 163.60 248.20Q165.16 248.20 166.32 248.82Q167.49 249.45 168.14 250.58Q168.78 251.70 168.78 253.24L168.78 255.59L160.53 255.59L160.53 256.84Q160.53 258.30 161.37 259.16Q162.21 260.01 163.60 260.01Q164.80 260.01 165.58 259.54Q166.36 259.07 166.53 258.28L168.69 258.28Q168.47 259.94 167.08 260.91Q165.69 261.88 163.60 261.88M160.53 253.24L160.53 253.91L166.67 253.91L166.67 253.24Q166.67 251.68 165.87 250.83Q165.06 249.98 163.60 249.98Q162.14 249.98 161.33 250.83Q160.53 251.68 160.53 253.24" fill="white" fill-opacity="0.7"/>
<path d="M178.53 261.83L177.47 261.83Q175.26 261.83 174.05 260.84Q172.84 259.84 172.84 258.02LNaN 258.02QNaN 258.93 175.65 259.44Q176.30 259.96 177.47 259.96L178.53 259.96Q179.73 259.96 180.39 259.43Q181.05 258.90 181.05 257.94Q181.05 256.24 179.49 256.02L175.84 255.50Q174.50 255.30 173.75 254.38Q173.01 253.46 173.01 251.94Q173.01 250.22 174.20 249.23Q175.38 248.25 177.47 248.25L178.53 248.25Q180.45 248.25 181.66 249.20Q182.87 250.14 182.97 251.68L180.78 251.68Q180.74 250.98 180.12 250.53Q179.51 250.07 178.53 250.07L177.47 250.07Q176.37 250.07 175.74 250.58Q175.12 251.08 175.12 251.94Q175.12 253.34 176.39 253.53L179.80 254.01Q183.16 254.49 183.16 257.94Q183.16 259.79 181.95 260.81Q180.74 261.83 178.53 261.83" fill="white" fill-opacity="0.7"/>
<path d="M97.14 136.06L84.37 136.06L66.42 65.98L76.21 65.98L87.82 113.21Q88.98 117.72 89.79 121.90Q90.61 126.08 90.99 128.28Q91.28 126.08 92.19 121.85Q93.10 117.63 94.16 113.12L105.39 65.98L115.18 65.98L97.14 136.06M153.20 136.06L143.70 136.06L143.70 74.62L124.69 74.62L124.69 65.98L172.11 65.98L172.11 74.62L153.20 74.62L153.20 136.06M227.31 136.06L186.51 136.06L186.51 65.98L227.31 65.98L227.31 74.52L195.92 74.52L195.92 95.36L223.95 95.36L223.95 103.61L195.92 103.61L195.92 127.52L227.31 127.52L227.31 136.06M248.82 136.06L238.35 136.06L258.32 100.44L239.41 65.98L250.26 65.98L260.62 85.95Q261.49 87.68 262.40 89.50Q263.31 91.32 263.79 92.28Q264.27 91.32 265.14 89.50Q266 87.68 266.86 85.95L277.33 65.98L287.79 65.98L268.88 99.96L288.85 136.06L278.10 136.06L266.58 114.56Q265.71 112.83 264.85 110.96Q263.98 109.08 263.50 107.93Q263.02 109.08 262.16 110.96Q261.30 112.83 260.34 114.46L248.82 136.06M365.55 136.06L356.53 136.06L356.53 65.98L369.97 65.98L378.61 96.22L387.63 65.98L401.17 65.98L401.17 136.06L392.05 136.06L392.05 103.90Q392.05 98.81 392.24 92.62Q392.43 86.43 392.77 80.24Q393.10 74.04 393.49 69.05L382.54 104.96L374.48 104.96L363.92 69.92Q364.78 76.92 365.17 85.52Q365.55 94.11 365.55 103.90L365.55 136.06M421.71 136.06L412.02 136.06L430.16 65.98L442.74 65.98L460.78 136.06L451.09 136.06L446.67 117.82L426.13 117.82L421.71 136.06M433.14 88.92L428.05 109.95L444.75 109.95L439.76 89.02Q438.32 83.26 437.46 79.23Q436.59 75.20 436.40 73.76Q436.21 75.20 435.34 79.23Q434.48 83.26 433.14 88.92M494.38 137.02Q484.02 137.02 477.87 131.60Q471.73 126.17 471.73 116.67L481.23 116.67Q481.23 122.24 484.78 125.40Q488.34 128.57 494.38 128.57Q500.14 128.57 503.55 125.36Q506.96 122.14 506.96 116.76Q506.96 112.73 504.75 109.71Q502.54 106.68 498.51 105.63L488.14 102.84Q481.33 100.92 477.34 95.88Q473.36 90.84 473.36 83.93Q473.36 78.27 475.90 74Q478.45 69.72 483.06 67.37Q487.66 65.02 493.71 65.02Q499.86 65.02 504.51 67.37Q509.17 69.72 511.76 73.95Q514.35 78.17 514.35 83.74L504.94 83.74Q504.94 79.13 501.82 76.25Q498.70 73.37 493.71 73.37Q488.72 73.37 485.70 76.25Q482.67 79.13 482.67 83.74Q482.67 87.48 484.69 90.03Q486.70 92.57 490.35 93.63L501.01 96.51Q508.21 98.43 512.24 103.85Q516.27 109.28 516.27 116.76Q516.27 122.91 513.58 127.47Q510.90 132.03 505.95 134.52Q501.01 137.02 494.38 137.02M556.40 136.06L546.90 136.06L546.90 74.62L527.89 74.62L527.89 65.98L575.31 65.98L575.31 74.62L556.40 74.62L556.40 136.06M630.51 136.06L589.71 136.06L589.71 65.98L630.51 65.98L630.51 74.52L599.12 74.52L599.12 95.36L627.15 95.36L627.15 103.61L599.12 103.61L599.12 127.52L630.51 127.52L630.51 136.06M655.95 136.06L646.54 136.06L646.54 65.98L668.24 65.98Q674.67 65.98 679.47 68.52Q684.27 71.07 686.96 75.63Q689.65 80.19 689.65 86.33Q689.65 93.44 686.05 98.52Q682.45 103.61 676.50 105.72L690.61 136.06L680.14 136.06L666.80 106.78L655.95 106.78L655.95 136.06M655.95 74.43L655.95 98.33L668.24 98.33Q673.62 98.33 676.74 95.07Q679.86 91.80 679.86 86.43Q679.86 80.96 676.69 77.69Q673.52 74.43 668.24 74.43L655.95 74.43M780.46 136.06L761.65 136.06L761.65 65.98L780.46 65.98Q787.28 65.98 792.32 68.62Q797.36 71.26 800.14 76.01Q802.93 80.76 802.93 87.20L802.93 114.75Q802.93 121.18 800.14 125.98Q797.36 130.78 792.32 133.42Q787.28 136.06 780.46 136.06M771.15 74.43L771.15 127.61L780.46 127.61Q786.51 127.61 789.97 124.16Q793.42 120.70 793.42 114.75L793.42 87.20Q793.42 81.24 789.97 77.84Q786.51 74.43 780.46 74.43L771.15 74.43M824.91 136.06L815.22 136.06L833.36 65.98L845.94 65.98L863.98 136.06L854.29 136.06L849.87 117.82L829.33 117.82L824.91 136.06M836.34 88.92L831.25 109.95L847.95 109.95L842.96 89.02Q841.52 83.26 840.66 79.23Q839.79 75.20 839.60 73.76Q839.41 75.20 838.54 79.23Q837.68 83.26 836.34 88.92MNaN 136.06L892.50 136.06L892.50 74.62L873.49 74.62L873.49 65.98L920.91 65.98L920.91 74.62LNaN 74.62LNaN 136.06M940.11 136.06L930.42 136.06L948.56 65.98L961.14 65.98L979.18 136.06L969.49 136.06L965.07 117.82L944.53 117.82L940.11 136.06M951.54 88.92L946.45 109.95L963.15 109.95L958.16 89.02Q956.72 83.26 955.86 79.23Q954.99 75.20 954.80 73.76Q954.61 75.20 953.74 79.23Q952.88 83.26 951.54 88.92M1055.31 136.06L1045.62 136.06L1063.76 65.98L1076.34 65.98L1094.38 136.06L1084.69 136.06L1080.27 117.82L1059.73 117.82L1055.31 136.06M1066.74 88.92L1061.65 109.95L1078.35 109.95L1073.36 89.02Q1071.92 83.26 1071.06 79.23Q1070.19 75.20 NaN 73.76Q1069.81 75.20 1068.94 79.23Q1068.08 83.26 1066.74 88.92M1116.75 136.06L1107.25 136.06L1107.25 65.98LNaN 65.98Q1136.72 65.98 1141.62 68.57Q1146.51 71.16 1149.20 75.82Q1151.89 80.48 1151.89 86.91Q1151.89 93.24 1149.20 97.90Q1146.51 102.56 1141.57 105.15Q1136.62 107.74 NaN 107.74L1116.75 107.74L1116.75 136.06M1116.75 74.43L1116.75 99.29LNaN 99.29Q1135.57 99.29 1138.83 95.88Q1142.10 92.48 1142.10 86.91Q1142.10 81.24 1138.83 77.84Q1135.57 74.43 NaN 74.43L1116.75 74.43M1204.30 136.06L1166.10 136.06L1166.10 127.42L1180.40 127.42L1180.40 74.62L1166.10 74.62L1166.10 65.98L1204.30 65.98L1204.30 74.62L1190 74.62L1190 127.42L1204.30 127.42" fill="url(#paint2_linear_0_1)"/>
<g id="Group 1">
<rect id="Rectangle 1" x="26" y="168" width="12" height="184" rx="5" fill="url(#paint3_linear_0_1)" fill-opacity="0.9"/>
</g>
<g id="Group 1_2">
<rect id="Rectangle 2" x="26" y="38" width="12" height="119" rx="5" fill="url(#paint4_linear_0_1)" fill-opacity="0.9"/>
</g>
<ellipse id="Ellipse 1" cx="148.5" cy="573" rx="215.5" ry="214" fill="url(#paint5_linear_0_1)" fill-opacity="0.4"/>
<rect id="Rectangle 3" x="1229" y="48" width="300" height="300" rx="25" fill="#FFFBFB" fill-opacity="0.9"/>
<g id="placeholder-logo"><g transform="translate(1229,48) translate(0.0,60.0) scale(1.2000)"><g fill="#666666">
  <path d="m88.05,27.65c-3.15,4 -3.2,51.2 -0.05,54.35c2.75,2.75 71.7,3.15 74.45,0.45c2.85,-2.9 2.3,-53.85 -0.65,-55.9c-1.95,-1.35 -7.15,-1.55 -36.95,-1.55l-34.7,0l-2.1,2.65zm69.45,3.35c0.65,0 1,8.6 1,23.75l0,23.75l-33,0l-33,0l-0.25,-23c-0.15,-12.6 -0.1,-23.45 0.15,-24.1c0.35,-0.85 8.9,-1.05 32.25,-0.75c17.55,0.2 32.3,0.35 32.85,0.35z"/>
  <path d="m99.15,37.3c-6.85,7.35 4.25,17.35 11.4,10.25c1.35,-1.35 2.45,-3.65 2.45,-5.05c0,-6.45 -9.35,-9.95 -13.85,-5.2z"/>
  <path d="m135,42.5c-0.7,0.85 -5.25,5.15 -10.1,9.6l-8.85,8.1l-3.2,-3.2l-3.15,-3.15l-6.35,6.3c-5.55,5.5 -6.35,6.75 -6.35,10.05l0,3.8l28.5,0l28.5,0l0,-8.6l0,-8.55l-8.15,-7.7c-9.35,-8.85 -9.15,-8.7 -10.85,-6.65zm7.25,15.2c0.95,0.9 1.75,2.9 1.75,4.45c6.35,-5.05 4.75,-7.15 4.9,-11.55c0.95,0 0,0 0,0l-6.65,7.1z"/>
  <path d="m53.65,110.75c0.1,4.8 0.45,8.65 0.75,8.5c0.35,-0.15 1.3,-0.25 2.1,-0.25c1.1,0 1.5,-1.2 1.5,-4.75l0,-4.75l3.25,5c4.9,7.5 6.2,6.75 6.55,-3.75c0.25,-8.15 0.15,-8.75 -1.7,-8.75c-1.65,0 -2.05,0.8 -2.3,4.75l-0.3,4.75l-2.8,-4.75c-4.85,-8.25 -7.25,-6.9 -7.05,4z"/>
  <path d="m91,108.9c0,9.65 0.3,10.1 6.1,10.1c5.8,0 7.15,-2.65 1.65,-3.2l-3.25,-0.3l-0.3,-6.75c-0.25,-5.95 -0.55,-6.75 -2.25,-6.75c-1.75,0 -1.95,0.7 -1.95,6.9z"/>
  <path d="m151,102.45c0,0.25 1,2.15 2.25,4.2c1.2,2.1 2.45,5.8 2.75,8.25c0.65,5.9 4,6.95 4,1.25c0.05,-2.1 1.25,-5.85 2.95,-8.9l2.9,-5.25l-2.5,0c-1.8,0 -2.8,0.85 -3.75,3.1l-1.3,3.05l-1.25,-3.05c-1.1,-2.6 -6.05,-4.8 -6.05,-2.65z"/>
  <path d="m191,107.45c0,9.05 3.4,8.85 4.25,-0.2c0.45,-5 0.35,-5.25 -1.9,-5.25c-2.2,0 -2.35,0.4 -2.35,5.45z"/>
  <path d="m180.8,104.75c-1.3,5.35 0.65,13.6 3.45,14.35c2.3,0.6 2.75,0.4 2.75,-1.2c0,-1.05 -0.45,-1.9 -1,-1.9c-0.55,0 -1,-1.6 -1,-3.5c0,-1.95 0.45,-3.5 1,-3.5c0.55,0 1,-0.7 1,-1.5c0,-0.85 -0.45,-1.5 -1,-1.5c-0.55,0 -1,-0.7 -1,-1.5c0,-2.1 -3.65,-1.9 -4.2,0.25z"/>
  <path d="m71.55,106.55c-2.2,2.25 -2.05,9.7 0.3,11.8c4.5,4.1 10.15,0.75 10.15,-6.1c0,-4.85 -2,-7.25 -6,-7.25c-1.55,0 -3.55,0.7 -4.45,1.55zm6.25,5.8c0.25,3.05 0,3.65 -1.6,3.65c-2.3,0 -3.25,-2.65 -2.05,-5.85c1.25,-3.35 3.3,-2.1 3.65,2.2z"/>
  <path d="m105.75,106.1c-2.5,1.45 -2.45,9.95 0.1,12.25c4.3,3.9 10.15,0.35 10.15,-6.2c0,-6 -5.15,-9.05 -10.25,-6.05zm6.05,6.25c0.25,3.05 0,3.65 -1.6,3.65c-2.3,0 -3.25,-2.65 -2.05,-5.85c1.25,-3.35 3.3,-2.1 3.65,2.2z"/>
  <path d="m119.2,106.2c-3.8,3.8 -0.4,12.55 4.4,11.35c1.9,-0.45 2.45,-0.3 2.15,0.65c-0.25,0.7 -1.55,1.2 -2.85,1.1c-4.05,-0.3 -5.35,0.45 -3.85,2.25c0.85,1.05 2.6,1.45 5.35,1.25l4.1,-0.3l0.3,-8.75l0.3,-8.75l-4.35,0c-2.4,0 -4.9,0.55 -5.55,1.2zm6.6,4.45c0.4,2.85 -2.15,4.85 -3.75,2.95c-0.9,-1.1 -0.9,-2 -0.05,-3.6c1.35,-2.5 3.4,-2.15 3.8,0.65z"/>
  <path d="m133.55,106.55c-2.2,2.25 -2.05,9.7 0.3,11.8c4.5,4.1 10.15,0.75 10.15,-6.1c0,-4.85 -2,-7.25 -6,-7.25c-1.55,0 -3.55,0.7 -4.45,1.55zm6.25,5.8c0.25,3.05 0,3.65 -1.6,3.65c-2.3,0 -3.25,-2.65 -2.05,-5.85c1.25,-3.35 3.3,-2.1 3.65,2.2z"/>
  <path d="m167.65,106.85c-3.9,4.3 -0.75,13.15 4.7,13.15c2.4,0 5.65,-2.75 5.65,-4.85c0,-1.4 -2.65,-1.55 -3.5,-0.15c-0.95,1.55 -4.5,1.15 -4.5,-0.5c0,-1.1 1.1,-1.5 4,-1.5c3.15,0 4,-0.35 4,-1.8c0,-5.3 -6.85,-8.25 -10.35,-4.35z"/>
  <path d="m191,117.5c0,2.15 0.4,2.6 2.25,2.3c1.5,-0.2 2.25,-1 2.25,-2.3c0,-1.3 -0.75,-2.1 -2.25,-2.3c-1.85,-0.3 -2.25,0.15 -2.25,2.3z"/>
 </g></g></g>
</g>
<defs>
<linearGradient id="paint0_linear_0_1" x1="0" y1="198" x2="1584" y2="198" gradientUnits="userSpaceOnUse">
<stop stop-color="#3D052C"/>
<stop offset="1"/>
</linearGradient>
<linearGradient id="paint1_linear_0_1" x1="323" y1="-224" x2="323" y2="352" gradientUnits="userSpaceOnUse">
<stop stop-color="#28F6F2" stop-opacity="0.4"/>
<stop offset="1" stop-color="#17908E" stop-opacity="0.7"/>
</linearGradient>
<linearGradient id="paint2_linear_0_1" x1="148.5" y1="38" x2="148.5" y2="140" gradientUnits="userSpaceOnUse">
<stop stop-color="white"/>
<stop offset="1" stop-color="#999999"/>
</linearGradient>
<linearGradient id="paint3_linear_0_1" x1="38" y1="260" x2="26" y2="260" gradientUnits="userSpaceOnUse">
<stop stop-color="#D9D9D9"/>
<stop offset="1" stop-color="#737373"/>
</linearGradient>
<linearGradient id="paint4_linear_0_1" x1="38" y1="97.5" x2="26" y2="97.5" gradientUnits="userSpaceOnUse">
<stop stop-color="#D9D9D9"/>
<stop offset="1" stop-color="#737373"/>
</linearGradient>
<linearGradient id="paint5_linear_0_1" x1="27.5" y1="434.5" x2="148.5" y2="787" gradientUnits="userSpaceOnUse">
<stop stop-color="#2E21BC"/>
<stop offset="1" stop-color="#150F56"/>
</linearGradient>
<clipPath id="clip0_0_1">
<rect width="1584" height="396" fill="white"/>
</clipPath>
</defs>
</svg>
